<svg xmlns="http://www.w3.org/2000/svg" width="3000" height="2000" xmlns:v="https://vecta.io/nano"><style><![CDATA[.B{fill-rule:evenodd}.C{fill:rgb(100%, 100%, 100%)}.D{fill:rgb(99.21875%, 68.943787%, 75.389099%)}.E{fill:rgb(99.21875%, 27.488708%, 35.301208%)}]]></style><defs><clipPath id="A"><path clip-rule="nonzero" d="M0 369h1180v994H0zm0 0"/></clipPath><clipPath id="B"><path clip-rule="evenodd" d="M-117.785 1172.418c37.164-32.512 65.738-75.789 105.492-107.199C190.313 905.148 459.66 827.25 680.238 988.27c126.305 92.199 280.867 405.586 447.191 372.191 104.75-21.031 118.441-274.309 131.332-362.27 30.469-207.871 143.719-377.07 328.219-456.363 273.121-117.367 337.898-77.879 465.09-150.039 261.691-148.461 190.281-461.809-269.629-432.008-57.703 3.738 510.047-69.25 452.289-66.703-563.07 24.871-1120.629-29.199-1681.117-77.738-270.688-23.449-786.262-133.828-783.051 320.07.566 80.43 98.504 958.094 111.652 1037.008zm0 0"/></clipPath></defs><path fill="rgb(29.393005%, 0.39978%, 0%)" d="M-300-200h3600v2400H-300z"/><path d="M-117.785 1172.418c37.164-32.512 65.738-75.789 105.492-107.199C190.313 905.148 459.66 827.25 680.238 988.27c126.305 92.199 280.867 405.586 447.191 372.191 104.75-21.031 118.441-274.309 131.332-362.27 30.469-207.871 143.719-377.07 328.219-456.363 273.121-117.367 337.898-77.879 465.09-150.039 261.691-148.461 190.281-461.809-269.629-432.008-57.703 3.738 510.047-69.25 452.289-66.703-563.07 24.871-1120.629-29.199-1681.117-77.738-270.688-23.449-786.262-133.828-783.051 320.07.566 80.43 98.504 958.094 111.652 1037.008" class="B D"/><g clip-path="url(#A)" class="B E"><g clip-path="url(#B)"><path d="M-130.352 554.352c15.957-4.211 35.898-20.453 51.371-27.691 46.277-21.648 93.816-40.32 141.703-57.602 185.805-67.027 461.602-116.719 659.094-94.09 115.441 13.23 263.703 68.27 289.715 204.492 14.969 78.379-23.719 150.879-71.199 207.918-32.312 38.82-80.082 77.25-67.238 135.52 42.785 194.113 281.207 18.531 304.855 212.113 2.039 16.746 1.84 34.023-1.09 50.637-4.348 24.605-14.75 47.578-27.301 68.664-17.379 29.219-39.637 54.57-66.828 73.906-21.352 15.191-45.262 25.855-69.922 33.547-184.434 57.559-263.793-115.203-388.891-211.844-66.516-51.387-144.336-78.215-225.816-88.187-105.105-12.863-208.762 7.988-312.539 22.734-72.273 10.27-151.715 24.547-218.977-14.41-90.676-52.516-14.531-421.418 3.063-515.707"/></g></g><g class="B"><path d="M1972.031 2194.219c-21.82-1.82-32.961-48.586-35.352-58.141-14.738-58.906-5.52-129.91 80.641-165.344 151.609-62.348 339.469 7.27 501.738-28.613 176.293-38.984 130.313-215.797 320.582-245.703 135.898-21.363 116.23 74.637 206.961 76.57 59.52 1.27 136.879-43.328 192.078-15.312 51.23 26.004 58.281 84.863 63.242 122.328 13.898 105.113 2.629 249.465-167.492 303.793-167.418 53.465-983.371 27.438-1162.398 10.422" class="D"/><g class="E"><path d="M2987.449 81.262c-1.84 8.34-31.527 55.797-51.738 70.578-8.43 6.172-26.922 17.09-34.422 3.789-4.527-8.039-1.398-18.07 4.313-24.57 11.289-12.859 28.938-17.457 41.188-29.289 11.922-11.52 42.512-28.859 40.66-20.508m34.902-95.313c-1.852 8.34-31.531 55.801-51.742 70.59-8.43 6.172-26.93 17.082-34.418 3.789-4.543-8.047-1.41-18.078 4.297-24.578 11.293-12.852 28.953-17.461 41.191-29.281 11.93-11.527 42.512-28.867 40.672-20.52m-90.954-5.219c-1.848 8.348-31.527 55.801-51.738 70.59-8.43 6.168-26.922 17.09-34.422 3.789-4.539-8.039-1.398-18.07 4.301-24.57 11.289-12.859 28.949-17.461 41.191-29.289 11.93-11.52 42.508-28.871 40.668-20.52m-53.75 110.911c-1.84 8.348-31.527 55.801-51.738 70.59-8.43 6.168-26.922 17.09-34.422 3.789-4.527-8.039-1.398-18.07 4.313-24.57 11.289-12.859 28.938-17.461 41.188-29.289 11.922-11.52 42.512-28.859 40.66-20.52m-87.028-12.813c-1.852 8.344-31.531 55.801-51.742 70.594-8.43 6.168-26.918 17.078-34.418 3.789-4.539-8.051-1.402-18.082 4.301-24.582 11.289-12.848 28.949-17.457 41.188-29.289 11.93-11.52 42.52-28.859 40.672-20.512m71.257 106.16c-1.84 8.352-31.527 55.801-51.738 70.59-8.43 6.172-26.922 17.094-34.422 3.793-4.527-8.043-1.398-18.07 4.313-24.57 11.277-12.859 28.938-17.461 41.188-29.289 11.922-11.523 42.512-28.863 40.66-20.523M-47.328 1936.059c2.609-8.137 36.547-52.652 58.035-65.516 8.961-5.363 28.383-14.527 34.621-.598 3.773 8.43-.27 18.129-6.555 24.074-12.426 11.758-30.43 14.715-43.715 25.363-12.937 10.371-44.992 24.816-42.387 16.676m-43.534 91.684c2.605-8.141 36.543-52.656 58.031-65.516 8.961-5.367 28.383-14.527 34.621-.602 3.773 8.43-.27 18.129-6.555 24.074-12.422 11.758-30.43 14.715-43.715 25.363-12.934 10.371-44.992 24.816-42.383 16.68m90.079 13.587c2.609-8.141 36.543-52.656 58.031-65.516 8.961-5.367 28.387-14.527 34.621-.598 3.777 8.426-.27 18.125-6.551 24.07-12.426 11.758-30.434 14.715-43.719 25.363-12.934 10.371-44.992 24.82-42.383 16.68"/><path d="M62.965 1935.844c2.605-8.141 36.543-52.652 58.027-65.516 8.965-5.363 28.387-14.527 34.625-.598 3.773 8.426-.27 18.125-6.555 24.074-12.426 11.758-30.43 14.711-43.715 25.359-12.937 10.375-44.992 24.82-42.383 16.68m85.477 20.794c2.609-8.141 36.543-52.656 58.031-65.516 8.965-5.367 28.387-14.527 34.625-.602 3.773 8.43-.273 18.129-6.555 24.074-12.426 11.758-30.434 14.715-43.715 25.363-12.937 10.371-44.992 24.816-42.387 16.68m-61.159-112.284c2.605-8.141 36.543-52.656 58.027-65.516 8.965-5.367 28.387-14.527 34.625-.602 3.773 8.43-.27 18.129-6.555 24.074-12.426 11.758-30.434 14.715-43.715 25.363-12.937 10.371-44.992 24.816-42.383 16.68"/></g><path d="M932.68 1526.285c.645 3.949 2.012 7.738 3.781 11.398 3.02 6.238 7.215 12.09 10.742 17.695l16.27 26.543-.73.691c-10.734 10.254-14.215 25.727-5.902 38.695a26.39 26.39 0 0 0 1.785 2.465c-9.785 6.188-20.465 10.68-32.168 11.598-14.133 1.105-27.84-2.031-41.488 3.453-9.449 3.801-16.25 10.391-22.449 17.703-5.926 6.984-11.285 14.641-18.105 20.906-6.855 6.301-15.25 11.094-23.465 15.41-.883.465-6.102 2.633-7.742 4.445-1.07 1.18-1.207 2.414-.77 3.434.387.902 1.227 1.672 2.41 2.16 1.59.648 3.957.805 4.984.902 6.859.68 13.934-.074 20.754-.805 12.344-1.324 25.656-4.047 37.117-9.836 2.172 2.969 5.938 3.84 10.191 3.359 5.695-.641 12.281-3.648 15.375-4.953 18.957-8.023 37.68-15.977 57.523-21.656 5.742-1.641 11.582-3.031 17.469-4.066.605-.109 2.047-.16 3.379-.32-3.73 20.273-6.402 41.352-7.937 62.402-12.297 15.594-32.203 26.738-48.09 37.941-8.988 6.34-18.668 13.195-24.703 22.613-4.098 6.387-5.477 13.098-6.5 20.098-4.703.234-9.293 2.832-13.094 5.559-11.168 8.016-19.488 18.668-27.477 29.691-3.91 5.398-7.988 10.797-10.859 16.844-.398.84-1.906 4.051-1.809 5.996.055 1.043.441 1.875 1.066 2.453.461.426 1.066.746 1.895.84 2.906.332 6.59-.422 10.379-1.664 5.211-1.707 10.66-4.305 14.32-5.578 10.543-3.676 20.348-8.406 29.648-13.926 2.07 1.465 4.383 1.961 6.645 1.063 1.48-.586 3.008-1.824 4.391-4.047 1.043-1.676 1.824-3.609 2.344-5.699 10.656-7.496 20.738-15.934 30.648-24.84 7.746-6.961 15.434-14.051 22.746-21.473.523-.535 4.254-3.582 7.215-5.988.246 7.105.641 14.102 1.184 20.965.84 10.547 2.629 22.621 6.566 33.566.43 8.27 2.473 21.035 2.824 27.121 1.246 21.559 5.324 42.094 13.844 62.008 6.254 14.633 13.824 29.137 23.973 41.488 5.652 6.883 11.66 13.391 17.66 19.863-5.098 3.172-10.949 5.359-16.359 6.332-2.609-2.055-5.41-3.801-8.359-5.094-1.371-.605-6.312-2.289-9.52-1.93-2.191.246-3.723 1.316-4.25 3.199-.645 2.313.789 4.508 3.949 5.887 4.871 2.121 14.02 2.723 15.57 2.57.469-.043.938-.098 1.41-.164 4.711 4.023 8.668 9.125 11.629 14.195 6.77 11.617 8.352 24.84 10.012 37.961 1.719 13.699 3.52 27.293 10.637 39.055 6.852 11.301 21.422 21.402 33.023 9.91 6.789-6.719 8.348-16.32 7.059-26.543-1.84-14.543-9.441-30.34-14.379-39.879-8.91-17.184-21.371-31.066-34.102-44.848 4.18-3.273 7.621-7.203 9.648-11.629 3.621-7.891 2.871-15.484.82-23.039-1.91-7.023-4.98-14.004-6.207-21.187-1.672-9.797-.562-19.934-.191-29.961.352-9.551.039-19.008-3.57-28.023 2.961.168 5.941.285 8.941.355 3.809 30.66 3.629 56.316 14.469 85.66 6.27 16.98 16.281 34.426 34.391 40.668 12.34 4.25 26.32 2.734 40.43-1.461 20.57-6.117 41.41-17.91 57.52-24.773l21.309-8.867c.621-.27 5.113-1.707 6.773-2.844.438-.301.758-.629.988-.961l43.539 75.453c-.73.102-1.488.25-2.258.441-10.883 2.691-26.57 14.062-29.703 16.383-34.258 25.418-64.648 55.98-96.066 84.719-79.223 72.465-166.211 144.629-263.32 191.715-27.641 13.402-67.336 30.848-104.379 33.402-24.27 1.672-47.402-3.062-65.051-19.855-16.473-15.668-28.57-34.91-40.414-54.402l-12.488-20.371c31.941 5.906 67.855 1.414 96.648-6.199 106.762-28.238 184.434-117.066 247.16-203.078a2.12 2.12 0 0 0-.457-2.957 2.12 2.12 0 0 0-2.961.465c-62.172 85.25-139.004 173.492-244.824 201.477-29.422 7.781-66.465 12.367-98.695 5.391-7.176-11.086-14.844-21.789-23.777-31.488-3.574-3.883-16.637-16.844-27.293-20.297-5.363-1.734-10.168-1.18-13.422 2.941-3.242 4.109-2.27 9.496 1.453 15.078 7.461 11.18 25.875 23.52 30.555 26.18 9.133 5.195 19.23 8.867 29.852 11.297 5.016 7.816 9.801 15.813 14.633 23.762 12.039 19.813 24.371 39.344 41.113 55.27 18.535 17.633 42.773 22.766 68.258 21.012 37.586-2.594 77.891-20.215 105.938-33.816 97.473-47.262 184.813-119.664 264.332-192.398 31.309-28.645 61.59-59.113 95.73-84.445 2.977-2.207 17.859-13.113 28.199-15.672 1.258-.312 2.449-.5 3.52-.496l1.5 2.672 2.109 3.777c-.41 1.289-1.051 2.629-1.82 3.973-3.141 5.516-8.359 11.047-10.559 13.77-16.312 20.086-36.18 37.887-55.949 54.445-89.121 74.625-185.941 141.195-279.59 209.977-27.012 19.832-53.766 40.656-78.066 63.785-1.523 1.449-12.203 11.285-16.105 18.48-2.312 4.27-2.129 7.84.758 9.586 2.934 1.773 7.02 1.918 11.32 1.129 5.723-1.051 11.848-3.676 15.461-4.984 22.859-8.297 44.441-19.961 65.426-32.156 82.523-47.961 160.105-105.531 235.906-163.379l56.52-44.387 21.891-18.277 7.188-6.047a1.99 1.99 0 0 0 .391-.258c.902-.746 1.02-2.082.281-2.98-.152-.172-1.5-1.383-3.102-.234-1.258.906-7.148 6.008-7.449 6.258l-21.879 18.266c-18.5 15.152-37.402 29.793-56.41 44.297-75.66 57.742-153.09 115.211-235.465 163.086-20.766 12.066-42.117 23.621-64.742 31.832-3.457 1.254-9.305 3.797-14.781 4.801-3.168.582-6.203.719-8.363-.586-.426-.258-.395-.727-.297-1.25.148-.809.539-1.719 1.07-2.695 3.691-6.809 13.859-16.062 15.301-17.434 24.172-23.004 50.789-43.711 77.652-63.441 93.723-68.836 190.613-135.457 279.793-210.141 19.98-16.73 40.051-34.73 56.52-55.023 2.301-2.832 7.703-8.609 10.961-14.344.262-.453.5-.906.73-1.355 6.781 12.453 13.199 25.066 19.371 37.855 2.57 5.316 5.277 10.559 8.16 15.707l2.859 5.246c.051.27.148.531.309.77.52.793.973 1.031 1.051 1.074.941.488 1.66.211 2.129-.094.223-.145 1.441-1.02.813-2.633-.25-.625-2.562-4.824-3.473-6.434-2.84-5.074-5.508-10.238-8.039-15.477-6.738-13.992-13.801-27.773-21.289-41.371.371-2.016.258-3.906-.461-5.543-1-2.242-2.719-3.59-4.969-4.16-24.25-43.098-49.02-86.016-75.551-127.75-9.219-14.512-18.891-28.719-28.859-42.707.289-.715.18-1.562-.359-2.184-.281-.328-.91-.734-1.852-.906-58.008-80.828-125.98-154.895-176.523-240.348 5.953-2.246 11.484-5.367 15.785-8.613 26.879-20.238 63.207-62.691 91.391-88.094 14.258 22.379 26.969 45.836 40.316 68.719 69.773 119.645 141.852 237.918 223.652 349.746 26.41 36.117 53.168 72.051 81.688 106.543 10.301 12.457 20.953 24.473 32.223 36.051 3.23 3.316 6.469 6.59 9.891 9.711 1.008.91 2.668 3.129 3.859 4.477.848.961 1.648 1.551 2.059 1.707 1.18.449 2.02.031 2.582-.656.258-.32.699-1.027.449-2.301a2.12 2.12 0 0 0-2.07-1.703c-1.242-1.391-2.98-3.703-4.02-4.652-3.359-3.062-6.551-6.277-9.723-9.535-11.187-11.496-21.758-23.426-31.988-35.793-28.469-34.43-55.168-70.297-81.539-106.344-81.711-111.711-153.699-229.863-223.41-349.383-13.48-23.125-26.332-46.832-40.77-69.43a196.75 196.75 0 0 1 5.469-4.621c8.5-6.91 5.332-17.285-2.09-25.074-4.172-4.383-9.609-7.887-14.602-9.344-3.687-1.082-7.16-1.039-9.859.316-1.039.527-1.461 1.801-.93 2.844.52 1.043 1.789 1.461 2.84.938 1.84-.93 4.23-.777 6.762-.039 4.348 1.277 9.09 4.375 12.73 8.203 5.609 5.891 8.91 13.645 2.48 18.871-1.672 1.359-3.383 2.801-5.121 4.316l-6.242-9.363c-3.219-4.703-7.859-12.277-13.398-17.707-4.02-3.945-8.539-6.742-13.289-6.977-7.152-.352-13.621 3.598-19.332 9.355-7.937 7.996-14.461 19.48-19.711 25.867-18.609 22.652-43.812 33.316-64.914 51.875l-15.879-25.895c-3.449-5.48-7.562-11.187-10.512-17.285-2.797-5.781-4.543-11.918-3.434-18.578.875-5.254 5.332-8.551 10.797-11.016 5.02-2.266 10.91-3.793 16.277-5.102l.145.238c.609 1 1.914 1.316 2.91.707a2.12 2.12 0 0 0 1.012-1.934c2.863-.703 5.434-1.379 7.449-2.125a71.71 71.71 0 0 0 6.922-2.984c3.34 3.273 6.926 5.328 10.652 5.621 5.965.469 12.727-3.445 19.668-15.031 3.129-5.219 5.969-11.043 6.77-17.156l.117-.969c4.563-3.687 9.262-7.195 14.34-10.234 1.281 2.832 2.68 5.633 4.23 8.398 1.902 3.375 9.25 12.348 15.301 15.094 2.641 1.195 5.09 1.277 7.031.082 1.77-1.09 3.301-3.418 3.848-7.73 1.352-10.672-2.199-19.805-8.957-23.516-4.582-2.512-10.742-2.695-18.113 1.012-.449.219-.879.445-1.316.676-4.152-10.09-7.062-20.457-10.512-30.551-5.031-14.687-11.199-28.797-23.629-40.785-37.957-36.609-99.305-22.34-128.832 17.121-26.441 35.336-7.383 80.078 20.66 107.719 4.102 4.043 11.875 12.445 19.91 17.816 5.867 3.922 11.926 6.145 16.961 4.691.863-.25 1.59-.598 2.199-1.02zm-281.789 742.242c-6.344-9.547-13.133-18.746-20.891-27.172-2.891-3.141-12.316-12.633-21.285-17.328-2.754-1.441-5.449-2.434-7.867-2.52-2.012-.066-3.793.559-5.125 2.246-2.195 2.777-.867 6.332 1.648 10.105 7.102 10.641 24.672 22.32 29.125 24.855 7.543 4.289 15.762 7.5 24.395 9.813zm-182.316-307.574c-44.867-62.934-87.344-127.543-131.793-190.762-49.918-70.992-102.309-141.578-147-216.055-12.051-20.078-23.324-42.641-29.734-66.07l.117-.09c16.855-12.898 23.043-36.371 20.203-56.637-.508-3.625-2.937-16.039-7.664-21.844-2.566-3.156-5.754-4.574-9.48-3.094-5.129 2.039-8.352 7.453-10.172 14.043-2.488 8.992-2.504 20.137-2.664 25.914-.375 13.371 1.461 26.773 4.832 39.93-8.105 5.258-18.09 7.355-28.598 7.695-17.832.582-37.145-3.914-51.73-7.363-5.738-1.359-15.34-4.457-23.633-4.406-6.172.039-11.629 1.809-14.805 6.641-3.844 5.844-3.535 12.867-1.16 19.953 3.285 9.793 10.523 19.715 14.387 26.234 23.266 39.27 47.168 78.16 72.563 116.098 103.621 154.805 223.156 305.121 361.008 430.895 41.18 37.57 84.156 73.313 126.188 109.938 13.742 11.977 27.805 23.598 41.16 36.012 1.266 1.176 17.492 17.043 20.367 20.418l.121.145a1.94 1.94 0 0 0 .105.199c.602 1.004 1.902 1.328 2.902.727a2.02 2.02 0 0 0 1.02-1.562 2.11 2.11 0 0 0-.195-1.215c-.082-.172-.312-.547-.73-1.039-2.926-3.434-19.422-19.574-20.711-20.77-13.387-12.445-27.48-24.102-41.258-36.105L486.105 2078.91c-137.605-125.547-256.914-275.602-360.348-430.125-25.348-37.871-49.211-76.699-72.437-115.898-3.746-6.324-10.828-15.922-14.012-25.426-1.937-5.777-2.453-11.516.68-16.281 2.398-3.645 6.637-4.703 11.293-4.734 7.949-.047 17.137 2.992 22.637 4.293 14.895 3.523 34.629 8.07 52.844 7.477 10.813-.352 21.094-2.516 29.605-7.652 6.578 23.313 17.781 45.746 29.785 65.75 44.746 74.566 97.191 145.238 147.164 216.313l136.879 197.867 3.543 4.941c4.051 9.082 9.328 17.621 14.707 25.008 6.172 8.477 13.152 16.297 20.734 23.543 28.438 37.512 59.602 73.578 97.184 100.703 10.645 7.684 25.848 18.297 41.34 23.406 10.703 3.527 21.543 4.43 31.223.262 4.234-1.824 6.309-4.289 7.078-6.906s.227-5.512-1.203-8.414c-2.449-4.961-7.539-10.004-11.012-13.336-17.512-16.797-40.488-27.492-62.352-37.363-34.566-15.609-71.051-34.422-99.105-61.176-12.07-15.934-23.652-32.133-35.027-48.012-5.008-11.359-7.949-23.566-6.336-35.355 2.957-21.605 20.156-37.031 36.09-50.164 21.102-17.387 45.562-29.109 69.875-40.957 24.625-12 49.098-24.129 69.898-42.164 11.227-9.734 24.785-23.211 33.262-38.316 5.785-10.316 9.199-21.395 8.074-32.578-1.574-15.609-11.059-22.648-22.844-24.746-11.258-2-24.727.688-35.043 4.688-24.957 9.676-49.219 25.617-74.215 35.707-24.437 9.867-49.594 14.094-76.867.68-36.859-18.125-52.637-51.301-59.238-88.422-6.703-37.66-3.988-79.379-3.812-114.016.09-17.859-.465-42.387-6.531-63.613-4.133-14.465-10.84-27.395-21.488-35.828-8.937-7.082-18.738-6.773-27.895-2.914-8.723 3.68-16.844 10.645-22.875 17.152-12.105 13.063-25.348 36.602-41.289 53.473-15.234 16.121-32.996 26.102-54.879 13.09-5.18-3.082-9.871-6.984-13.895-11.465-5.977-6.656-10.504-14.551-13.734-22.867-4.574-11.777-5.617-24.098-5.059-36.641 2.285-51.191 34.281-80.727 75.027-100.699 41.359-20.277 91.707-30.75 129.965-43.574 21.344-7.152 41.793-15.613 60.758-27.871 20.492-13.242 49.332-34.27 66-59.437 11.359-17.156 17.09-36.227 11.137-56.09-4.82-16.074-17.418-30.641-28.852-42.457-.812-.84-2.152-.863-2.992-.051a2.12 2.12 0 0 0-.051 2.992c10.988 11.359 23.207 25.281 27.84 40.73 5.578 18.621.035 36.457-10.609 52.535-16.348 24.68-44.676 45.238-64.77 58.223-18.668 12.063-38.801 20.371-59.805 27.414-38.414 12.879-88.957 23.426-130.484 43.785-42.145 20.66-75.027 51.363-77.391 104.313-.586 13.133.551 26.027 5.34 38.359 3.414 8.793 8.215 17.129 14.531 24.164 4.309 4.797 9.332 8.977 14.879 12.273 23.93 14.23 43.461 3.805 60.117-13.82 15.953-16.879 29.207-40.434 41.32-53.504 5.652-6.102 13.23-12.68 21.414-16.125 7.75-3.27 16.055-3.664 23.625 2.328 9.988 7.914 16.168 20.105 20.047 33.676 5.953 20.828 6.453 44.902 6.363 62.43-.176 34.867-2.867 76.867 3.879 114.777 6.84 38.453 23.359 72.703 61.539 91.48 28.496 14.016 54.781 9.754 80.316-.555 24.98-10.086 49.223-26.02 74.164-35.687 9.652-3.742 22.238-6.336 32.77-4.465 10.004 1.777 18.039 7.758 19.375 21 1.039 10.336-2.207 20.551-7.555 30.086-8.23 14.672-21.437 27.73-32.344 37.188-20.52 17.793-44.687 29.719-68.98 41.559-24.609 11.992-49.352 23.895-70.711 41.496-16.723 13.781-34.488 30.18-37.59 52.859-1.074 7.836-.262 15.863 1.797 23.73zm202.414 286.074a2.1 2.1 0 0 1 .93-1.184c-.441.266-.777.645-.93 1.184zM969.41 1977.27l-26.77 26.031c-54.312 50.41-114.816 94.016-170.047 143.523l-50.863 46.063c-1.391 1.324-7.348 8.863-11.848 12.984-1.074.98-2.578 1.93-2.875 2.113-1.012-.105-1.977.535-2.254 1.551a2.12 2.12 0 0 0 1.484 2.598c.586.156 1.309.156 2.125-.121.672-.23 1.492-.687 2.383-1.352 4.594-3.418 12.293-13.176 13.906-14.715 16.5-15.75 33.785-30.746 50.766-45.969 55.246-49.527 115.773-93.148 170.102-143.574 9.695-8.996 18.965-18.715 28.672-27.84 5.102.988 10.348.715 15.512-1.52 1.504-.648 13.148-9.52 17.156-15.227 1.492-2.113 1.91-4.035 1.52-5.258-.367-1.16-1.309-2.191-3.32-2.492-2.93-.437-6.223.461-9.43 2.059-4.328 2.16-8.52 5.559-11.277 7.813-3.914 3.203-7.711 6.57-11.437 10.035-1.051-.281-2.094-.621-3.125-1.012-6.168-2.328-11.941-6.387-16.848-10.477-13.871-11.562-24.5-26.543-39.035-37.43-34.527-25.867-77.348-30.984-119.055-23.879-39.266 6.691-69.828 24.934-98.012 47.117-27.898 21.965-53.461 47.809-82.988 69.949-6.828 5.121-23.273 14.824-37.09 16.645-8.379 1.105-15.789-.77-18.715-9.355-1.984-5.824-.676-11.816 2.066-17.262 2.879-5.719 7.352-10.852 11.598-14.652 20.871-18.676 47.273-31.371 71.563-44.898 46.48-25.879 96.359-54.148 149.492-63.027 50.945-8.512 106.227 4.906 153.652 22.75a2.12 2.12 0 0 0 2.727-1.234 2.12 2.12 0 0 0-1.238-2.727c-48.094-18.098-104.172-31.594-155.836-22.965-53.605 8.957-103.965 37.395-150.855 63.508-24.559 13.672-51.223 26.559-72.328 45.438-5.543 4.965-11.398 12.039-14.238 19.77-1.98 5.391-2.504 11.098-.605 16.668 3.672 10.781 12.75 13.57 23.273 12.184 14.543-1.918 31.887-12.062 39.074-17.453 29.555-22.16 55.141-48.023 83.07-70.008 27.641-21.762 57.586-39.707 96.102-46.273 40.563-6.91 82.227-2.059 115.809 23.094 14.473 10.844 25.043 25.777 38.859 37.293 5.551 4.629 12.152 9.117 19.18 11.535zm1387.5-1079.648c-25.191-2.711-52.371 4.32-76.648 9.488-8.523 1.82-17.09 3.801-25.32 6.699-1.703.602-3.863 2.09-5.902 3.43-.539.352-1.059.691-1.57.98-.527.313-1.039.582-1.5.742-.078.027-.168.059-.258.078-.41-.801-1.27-1.238-2.141-1.141l-21.219-59.668c-3.723-10.242-7.223-25.281-14.48-33.789-2.441-2.863-5.43-3.73-8.66-3.473-2.789.23-5.781 1.359-8.672 2.68-2.578 1.172-5.078 2.492-7.23 3.211-.699.242-1.348.41-1.949.461-.461.031-.879.02-1.187-.27a2.11 2.11 0 0 0-2.992.039c-.809.84-.789 2.18.051 2.988 1.23 1.203 2.828 1.641 4.758 1.434 2.023-.23 4.523-1.293 7.211-2.551 2.891-1.371 6.051-2.98 9.039-3.582 2.383-.469 4.652-.258 6.41 1.801 6.973 8.172 10.152 22.672 13.723 32.492l23.238 65.488c24.98 72 51.43 143.82 70.301 217.738l-.398.375c-.863.801-3.941 2.832-5.773 4.59-1.25 1.199-1.937 2.449-2.02 3.305a2.12 2.12 0 0 0 1.902 2.309c1.09.105 2.059-.629 2.27-1.668.148-.168.91-1.039 1.539-1.574 1.172-1 2.57-2.02 3.629-2.805l4.602 19.133c7.148 30.957 12.969 62.953 14.301 94.766.258 6 .559 12.785-.32 19.266-.41 3.027-1.07 5.996-2.141 8.762-11.578-8.461-27.07-12.875-47.09-11.238-12.488 1.02-24.699 4.609-36.332 9.141-8.828 3.438-17.297 7.461-25.508 11.902-27.461.609-53.621 6.488-78.871 23.77-6.758 4.625-16.187 11.918-22.937 20.277-4.691 5.813-8.062 12.156-8.582 18.477-.27 3.227.66 5.211 2.07 6.367 1.391 1.137 3.441 1.559 5.941 1.184 8.648-1.297 24.168-12.562 26.277-14.012 25.59-17.633 50-37.043 77.23-51.875 15.582-.266 31.59 1.176 48.09 3.141 9.602 1.141 23.551 3.738 35.949 2.68 8.723-.742 16.672-3.309 22.07-9.121 1.191-1.277 2.223-2.648 3.121-4.094a59.92 59.92 0 0 1 1.371 1.27c8.391 8.063 14.008 18.805 17.258 31.035-.02 7.309.891 14.297 3.242 20.68.41 6.695.289 13.602-.32 20.574-1.582 18.074-11.23 26.047-24.152 30.449-8.687 2.965-18.809 4.363-29.008 6.043-.211-.566-.66-1.035-1.27-1.25a2.27 2.27 0 0 0-1.879.109c-.492.25-1.113.828-1.312 1.875-36.988 6.129-73.801 11.816-109.879 22.406-130.082 38.18-248.34 104.496-382.02 133.258-49.652 10.684-113.52 26.324-163.492 9.148-14.547-5.004-27.277-13.398-36.859-24.406 3.551-17.645.742-36.828-4.949-53.562-.66-1.934-1.949-6.324-3.77-10.559 16.461-6.965 32.48-7.187 49.949-10.805 29.73-6.156 59.43-11.984 88.719-20.047 15.18-4.184 30.25-8.527 45.09-13.809 5.25-1.867 10.363-4.027 15.453-6.27l5.348-2.395c.063-.027.109-.055.172-.086l42.02 2.906c57.688 4.418 112.008 25.574 169.398 30.625 12.352 1.086 28.359 1.98 42.633-.988 9.797-2.039 18.777-5.906 25.328-12.641 3.578-3.68 4.91-7.977 5.262-12.531.309-4.16-.23-8.543-.434-12.793-.418-8.992-1.59-18.418-3.777-27.613l2.051-12.07c12.359-70.109 23.188-140.414 38.777-209.914 19.461-86.777 42.5-173.055 50.543-261.895 3.309-36.5 3.117-73.879 9.469-110.027.109-.652.66-3.273 1.559-6.66 2.359.566 4.48.77 6.16.559 4.93-.629 8.91-4.23 10.719-8.73 1.813-4.52 1.453-9.879-2.137-13.93-1.543-1.738-3.113-2.43-4.582-2.5-2.09-.102-4.219 1.148-6.09 3.57-2.781 3.609-5.18 10.039-6.91 15.73-4.699-1.75-9.949-4.641-14.348-7.992-4.562-3.457-8.301-7.32-9.184-10.93 2.371-10.168 4.492-21.598 4.453-32.187-.051-12.543-3.16-23.922-11.973-31.043-11.687-9.469-30.23-9.797-44.398-9.449-29.398.711-58.73 6.301-87.969 9.199-27.832 2.762-55.82 4.59-83.863 5.633 4.441-9.59 7.844-24.52 8-40.09.203-18.922-4.387-38.723-17.277-51.09 3.891-5.34 7.648-10.773 11.039-16.434 2.859-4.75 7.039-11.547 9.18-18.348 1.539-4.891 2.012-9.789.469-14.051a10.01 10.01 0 0 0-.797-1.719 2.11 2.11 0 0 0 1.469-1.762c.66-5.359-2.129-9.559-6.512-12.648-5.859-4.141-14.617-6.223-19.84-6.723-5.578-.52-11.258-.199-16.93.813 1.09-3.449 1.02-7.062-1.168-10.621-5.812-9.449-18.5-11.59-28.691-11.238-11.328.391-22.461 3.891-32.621 9.398l.531-.609c5.922-6.859 13.648-13.691 16.941-22.289 1.77-4.621 1.969-10.531.301-15.5-1.762-5.25-5.551-9.461-11.562-10.391-8.289-1.27-17.41 2.109-24.551 5.949-8.16 4.379-15.43 10.66-22.168 16.949-10.922 10.199-24.082 23.891-31.992 39.102-2.68 5.16-4.758 10.488-5.969 15.93a2.07 2.07 0 0 0-1.258.219 2.2 2.2 0 0 0-.922.949c-.5.23-1.25.59-1.551.863a64.29 64.29 0 0 0-3.82 3.629c-3.469 3.531-6.57 7.219-9.379 11.309-8.441 12.262-15.328 25.992-20.121 40.082-6.148 18.09-6.359 35.027-5.391 51.988.91 16.16 2.902 32.32 1.57 49.551l-5.277-1.172c-38.082-8.359-76.703-13.758-114.691-22.66-24.281-5.687-55.43-16.109-84.988-18.406-20.09-1.562-39.453.629-55.551 10.34-10.473 6.316-18.012 16.688-23.781 28.609-8.43 17.391-13.09 38.09-18.078 53.648-23.922 74.629-42.543 151.402-62.23 227.223-15.59 60.004-31.789 120.445-38.461 182.238-1.379 12.715-3.309 29.027-1.129 43.742 1.508 10.133 4.969 19.512 11.738 26.59.969 1.02 2 1.941 3.063 2.781 10.449 21.82 9.227 39.836 7.699 56.461-1.609 17.586-3.48 33.68 6.391 50.941 10.43 18.262 27.977 28.609 48.18 34.621 24.988 7.434 54.047 8.188 78.219 9.527 3.168 6.211 4.762 13.906 5.668 21.984 1.461 13.059 1.113 27.102 2.25 37.809 5.211 49.207 9.543 99.93 3.102 149.199-1.609 12.297-3.551 25.223-6.68 37.816-13.719 8.352-26.73 19.43-35.41 31.824-2.191 3.137-5.738 8.668-7.328 14.051-1.203 4.066-1.242 8.055.68 11.133 3.02 4.828 7.859 4.586 12.867 1.738 6.133-3.48 12.48-10.941 14.16-13.301 8.98-12.602 14.723-27.387 18.672-42.703 4.891-2.891 9.84-5.418 14.699-7.52 37.531-16.242 79.859-15.004 122.441-8.934 43.02 6.137 86.297 17.219 125.277 20.625 146.992 12.848 294.73-19.277 424.781-88.445 33.07-17.586 65.621-37.687 93.5-62.883 12.84-11.598 26.781-25.836 31.641-42.988 4.988-17.664-3.32-31.41-16.27-42.531-3.699-3.172-9.062-3.879-13.582-5.062-3.129-.82-5.848-1.871-6.187-5.492l41.617-7.012c.453 2.105 1.043 4.262 1.133 4.66 1.129 5.215 1.988 10.371 2.367 15.703 1.141 15.777-.059 31.891-1.668 47.594-2.152 20.891-10.449 37.578-19.902 53.707-9.66 16.48-20.508 32.387-27.547 51.402-6.031 4.355-11.852 8.996-17.43 13.922-15.492 13.652-32.012 31.492-35.371 52.742-1.812 11.422 2.469 21.797 10.188 27.965a2.04 2.04 0 0 0-.328 1.059c-1.461 40.871-66.02 216.34-99.871 329.375-10.219 34.113-17.648 62.574-19.777 80.027-.973 7.945-.781 13.742.539 16.945 2.461 5.973 5.75 8.688 9.168 9.457 3.43.77 7.203-.426 10.883-2.879 6.48-4.32 12.809-12.543 16.418-17.727 11.98-17.211 25.531-36.402 41.34-47.539 15.281-10.766 32.699-13.754 52.832.641 15.289 10.93 26.059 27.629 34.508 46.535 12.891 28.852 20.371 62.832 29.73 89.945 3.5 10.133 8.492 14.801 14.262 15.965 3.48.703 7.328.125 11.469-1.508 5.719-2.254 12.059-6.555 18.801-11.867 16.277-12.828 35.02-31.687 53.289-40.367 11.52-5.469 22.832-6.82 33.102.762 15.449 11.406 32.199 19.914 50.039 25.043 52.18 15.012 99.641-13.801 125.441-65.633 8.359-16.789 15.867-40.66 27.367-58.738 7.391-11.605 16.41-20.816 28.582-23.805 11.059-2.715 21.891-.105 32.02 4.992 10.418 5.246 20.109 13.121 28.578 20.805 19.34 17.531 40.922 42.195 64.922 57.52 16.391 10.465 33.898 16.598 52.559 13.531 34.5-5.672 56.281-40.934 65.191-76.797 20.77-83.68-20.031-152.449-48.191-225.703-10.598-27.574-20.937-55.973-27.398-85.25-2.02-9.176-4.039-24.664-5.082-34.336 24.961-16.531 42.203-41.207 54.352-69.187 16.031-36.934 23.168-79.629 27.609-116.633 2.781-23.18 4.469-46.395 4.602-69.742.008-2.055-1.031-10.23-.762-15.613.051-1.004.141-1.898.309-2.605.063-.223.184-.523.223-.617l.039-.031.02-.023c12.691-4.508 25.07-9.937 37.051-15.832 28.871-14.211 58.059-34.102 76.359-61.203.652-.969.402-2.285-.57-2.937s-2.277-.398-2.937.566c-17.891 26.504-46.5 45.883-74.723 59.777-28.719 14.133-59.758 25.594-91.937 27.789-81.512 5.566-174.031-39.156-199.133-121.551-15.59-51.168-7.828-100.199 7.859-148.086 15.82-48.285 39.691-95.41 56.16-142.367 19.051-54.316 21.16-109.434 34.402-164.715 1.398-5.84 3.129-11.668 5.301-17.27 6.758-17.41 17.797-22.102 30.48-25.859l10.289-2.98.098.008c6.992.742 14.191.41 21.043-1.187 9.438-2.191 18.527-6.77 24.84-14.27.949-1.141 3.16-3.973 3.918-6.5.762-2.551.281-4.832-2.187-6.121-1.062-.559-2.391-.75-3.941-.512-1.742.262-3.852 1.09-6.109 2.313-7.852 4.23-18.062 13.34-21.473 15.23-5.547 3.078-11.109 5.09-16.52 6.75-22.75-2.73-32.898-16.953-36.059-34.602-3.301-18.441.852-40.52 6.41-57.629 4.461-13.742 4.09-23.141-1.75-36.422-1.57-3.551-3.402-6.988-5.242-10.41-.617-1.141-1.707-3.848-2.359-5.117-.129-.242-.25-.453-.367-.633a18.27 18.27 0 0 0 .328-.918c5.738-16.383 6.832-34.609 2.66-49.48-1.301-4.621-3.148-9.039-5.539-13.16l1.379.219c6.879 1.07 13.98-.609 20.211-3.48 2.918-1.34 5.59-3.078 8.141-5.008l-.051.148c-1.492 4.359-2.391 8.961-2.629 13.563-.152 3.078-.102 6.219.457 9.25 1.063 5.668 3.66 9.359 6.953 10.777.418.191.859.34 1.316.449-2.66 10.262-2.977 22.602 2.652 31.16 2.16 3.313 4.859 4.902 7.641 5.313 1.32.199 2.668.117 4.02-.211-2.441 9.762.84 21 6.809 30.359.629.98 1.93 1.27 2.922.641a2.12 2.12 0 0 0 .641-2.922c-6.094-9.539-9.301-21.387-4.922-30.738.828-.609 1.629-1.32 2.391-2.09 2.031-2.09 3.809-4.379 5.449-6.77.539-.371 1.121-.719 1.719-1.059 4.352-2.492 9.281-3.512 14.152-4.453l6.438-1.238c4.66-.91 12.652-3.449 17.453-7.75 3.66-3.27 5.578-7.5 3.75-12.691-1.68-4.77-5.43-6.867-9.832-7.277-5.871-.551-12.969 2.148-16.801 4.898-6.117 4.398-10.141 10.391-13.867 16.609-1.98 3.309-3.891 6.699-6.031 9.902-3.742 2.617-6.43 5.738-8.211 9.148-1.77 1.141-3.641 1.719-5.461 1.461-1.75-.262-3.359-1.371-4.727-3.453-5.211-7.93-4.492-19.488-1.812-28.867 2.09-.5 4.352-1.68 6.699-3.68 4.633-3.973 8.441-8.793 12.383-13.441 1.43.141 2.887.371 4.34.629 4.98.891 10.008 2.191 14.328 2.301 4.152.121 9.32-.59 13.07-2.691 2.121-1.187 3.801-2.816 4.75-4.906.941-2.082 1.199-4.66.281-7.82-1.312-4.531-4.711-6.672-8.84-7.273-5.422-.797-12.191 1.273-16.012 3.402-5.48 3.07-9.758 7.391-13.77 12.02-2.82-.102-5.52.18-7.969 1.102-5.691 2.129-9.27 8.168-11.383 13.469a50.79 50.79 0 0 0-1.047 2.859 3.9 3.9 0 0 1-.84-.27c-2.273-.988-3.742-3.75-4.461-7.672-.512-2.707-.539-5.52-.402-8.258.211-4.211 1.043-8.422 2.402-12.41 1-2.93 2.379-5.672 4.078-8.09 1.66-1.379 3.32-2.73 5.051-3.98 3.699-2.699 7.699-4.879 11.91-6.422 2.469-.219 5.07.012 7.77.73 7.781 2.102 14.59 6.742 22.449 8.672 1.57.391 4.07.789 5.883.469 1.48-.27 2.59-.988 3.188-2.07.52-.969.742-2.391-.117-4.398-1.312-3.082-3.773-5.281-6.773-6.809-4.066-2.082-9.129-2.91-13.09-3.301-6.969-.691-13.777.25-20.18 2.52-7.887.809-14.637 5.301-19.32 11.82-4.629 3.918-9.199 7.98-14.707 10.508-5.492 2.52-11.73 4.082-17.781 3.133-.82-.121-2.352-.293-3.609-.723-.352-.117-.859-.41-.93-.457-.359-.602-.98-.961-1.641-1.012-1.699-2.191-3.492-4.191-5.352-6.02.191-.121.371-.301.551-.531.25-.32 2.012-3.578 2.59-4.379 2.313-3.18 4.902-6.16 7.66-8.949 8.742-8.832 18.902-16.52 31.379-18.812 32.922-6.008 69.961 11.711 89.141 38.41 5.41 7.52 9.633 16.063 12.602 24.832 7.82 23.02 5.371 45.16-1.102 66.738-6.57 21.941-17.258 43.301-25.789 64.41-8.5 21.039-16.199 42.98-13.359 66a4.75 4.75 0 0 0-.062.609c-.039.941.051 2.762.063 2.91l.391 6.031c.27 5.27.391 10.539.328 15.82-.148 13.539-.551 27.09-1.148 40.629l-.59-1.121a2.13 2.13 0 0 0-2.859-.879c-1.031.551-1.434 1.832-.883 2.859a188.68 188.68 0 0 0 3.949 7.109c-2.437 48.402-8.039 96.5-15.047 144.422-5.051 34.555-11.121 69.609-8.34 104.641 2.828 35.785 14.219 71.59 10.207 107.664-.41 3.672-.957 7.359-1.668 11.043l-1.48.969c-12.41 8.055-25.449 15.465-36.07 25.621-5.629 5.371-12.121 13.227-15.668 21.688-2.473 5.895-3.523 12.078-2.051 17.969.73 2.934 2.051 4.805 3.668 5.93 2.402 1.68 5.59 1.773 9.051.676 7.23-2.289 15.82-9.812 18.582-12.824 14.387-15.699 23.477-36.441 27.777-57.473 11.441-7.625 22.09-16.078 29.582-28.008a2.13 2.13 0 0 0-.66-2.918c-.992-.621-2.301-.32-2.922.668-6.418 10.215-15.289 17.727-24.93 24.418.402-2.434.73-4.867 1-7.289 4.031-36.344-7.348-72.418-10.199-108.469-2.75-34.711 3.301-69.449 8.309-103.695 6.73-46.008 12.16-92.187 14.762-138.641 19.848 31.191 45.898 52.543 74.758 77.473 27.211 23.508 55.543 46.852 90.41 57.871 29.18 9.223 59.723 15.426 89.953 20.016 10.93 1.656 25.328-.398 35.75 2.984 1.109.359 2.297-.25 2.66-1.359a2.12 2.12 0 0 0-1.363-2.668c-10.609-3.441-25.277-1.453-36.41-3.141-9.398-1.426-18.816-3.008-28.219-4.789.141-.461.121-.969-.078-1.441-7.363-17.453-20.922-30.867-33.621-44.742-12.27-13.41-23.75-27.25-27.391-46.031-5.602-28.93.57-60.199 4.969-88.852 7.332-47.809 16.41-97.879 6.59-146-5.949-29.148-18.937-56.379-40.84-76.848-11.77-11.012-25.797-20.492-38.637-31.02-12.57-10.312-24-21.621-30.871-36.551-12.031-26.121-9.609-54.793-6.5-83.75 3.168-29.641 7.07-59.59-2.082-87.562-6.59-20.16-18.637-39.699-36.937-51.098-12.73-7.93-30.25-12.07-46.531-10.441-14.852 1.5-28.629 7.789-36.949 20.23-24.691-21.922-60.18-32.941-92.43-32.43-86.973 1.371-160.242 67.281-189.801 145.719-14.73 39.07-17.98 81.25-32.238 120.551-15.043 41.469-44.152 81.16-51.031 125.148-2.941 18.801-1.691 37.383-1.25 55.953.418 18.199.059 36.379-6.102 54.75-4.527 13.488-12.859 23.828-21.379 33.93-8.832 10.457-17.859 20.668-23.5 33.578a22.18 22.18 0 0 0-1.5 4.922zm142.5 665.457c-23.172-11.359-48.691-19.234-78.488-21.641-25.051-2.02-50.512-.32-75.184 4.957-15.5 18.82-28.566 39.496-39.16 58.047-8.398 14.723-17.906 32.086-29.809 46.91-12.121 15.102-26.738 27.559-45.109 32.188-7.738 1.953-14.922.859-20.75-2.336-2.77 43.379-66.379 216.91-99.98 329.094-10.129 33.816-17.52 62.023-19.629 79.324-.84 6.949-.902 12.02.25 14.82 1.738 4.215 3.77 6.398 6.188 6.941s5-.543 7.602-2.27c6.059-4.043 11.922-11.781 15.289-16.625 12.262-17.609 26.211-37.184 42.383-48.578 16.699-11.766 35.727-15.074 57.727.656 15.883 11.348 27.141 28.621 35.91 48.25 12.941 28.961 20.473 63.07 29.871 90.289 2.16 6.234 4.789 10.105 8.02 12.02 3.621 2.137 7.859 1.656 12.59-.289 5.293-2.18 11.109-6.195 17.313-11.082 16.5-13.008 35.559-32.066 54.09-40.863 13.02-6.187 25.809-7.398 37.43 1.176 15.027 11.102 31.328 19.387 48.688 24.383 50.191 14.438 95.672-13.602 120.492-63.453 8.41-16.902 16-40.922 27.578-59.125 8.012-12.586 17.941-22.402 31.141-25.645 12.063-2.957 23.891-.234 34.93 5.324 10.762 5.414 20.781 13.52 29.52 21.453 16.012 14.516 33.563 33.973 52.77 48.867 18.762 14.547 39.094 24.77 61.184 21.141 32.918-5.41 53.27-39.422 61.77-73.645 20.547-82.766-20.18-150.703-48.031-223.16-10.672-27.773-21.078-56.375-27.578-85.859-1.91-8.668-3.832-22.891-4.934-32.723-7.227 4.395-15.078 8.125-23.598 11.09-25.199 8.766-50.961 5.059-75.199-4.617-23.953-9.559-46.402-24.949-65.312-39.652-35.551-27.645-66.348-57.547-100.289-81.5-11.5-8.113-23.352-15.543-35.891-21.965-2.918 4.883-6.539 9.648-10.84 14.195-28.68 30.273-73.918 56.848-107.437 88.883-32.91 31.441-54.441 68.215-36.613 119.422 4.41 12.672 10.711 24.684 18.953 35.293 5.207 6.707 11.18 12.848 17.988 17.938 12.012 8.977 22.129 11.184 30.738 8.703 8.672-2.5 15.711-9.633 21.57-18.816 12.211-19.137 19.172-47.168 23.5-63.863 2.133-8.227 4.352-16.426 6.941-24.516 3.469-10.816 7.641-21.418 12.789-31.551 5.16-10.16 13.383-22.812 23.539-30.922 10.621-8.473 23.32-12.074 36.953-3.605 14.488 8.992 13.539 27.117 9.359 41.422-9.191 31.457-32.012 56.461-43.781 86.75-20.461 52.691-7.621 111.316 10.391 162.863 7.18 20.563 16.102 43.461 31.691 59.27 8.539 8.668 15.949 12.012 22.199 11.41 5.621-.539 10.129-4.328 13.508-9.785 5.43-8.781 7.922-21.836 6.992-34.152-2-26.355-20.742-54.598-34.512-82.859-14.25-29.219-23.187-58.434-5.129-85.59 5.988-9.012 12.41-13.414 18.91-14.715 6.539-1.309 13.25.52 19.898 4.332 9.41 5.395 18.75 14.801 27.332 24.066 8.328 8.988 15.938 17.832 22.23 22.43 9.25 6.742 20.309 10.457 29.039 7.355 5.66-2.008 10.18-6.961 12.551-15.672 3.43-12.617.258-24.832-5.422-36.254-5.859-11.781-14.41-22.723-21.539-32.418-11.949-16.23-25.102-34.41-34.051-53.867-9.09-19.758-13.828-40.824-8.828-62.52.258-1.137 1.398-1.848 2.539-1.586s1.852 1.398 1.59 2.535c-4.789 20.758-.148 40.902 8.539 59.801 8.832 19.195 21.832 37.117 33.621 53.129 7.27 9.879 15.941 21.039 21.918 33.039 6.141 12.359 9.422 25.598 5.711 39.254-2.828 10.406-8.449 16.145-15.211 18.547-9.867 3.508-22.488-.297-32.949-7.926-10.648-7.773-25.051-27.473-40.27-39.973-8.559-7.031-17.328-11.832-25.871-10.125-5.617 1.125-11.027 5.117-16.219 12.91-17.18 25.836-8.141 53.594 5.41 81.391 14.02 28.758 32.898 57.578 34.93 84.395 1 13.242-1.77 27.262-7.609 36.699-4.141 6.688-9.82 11.109-16.711 11.77-7.148.688-15.828-2.727-25.617-12.652-16.012-16.242-25.293-39.715-32.672-60.844-18.328-52.465-31.16-112.156-10.328-165.793 11.719-30.176 34.5-55.062 43.656-86.402 1.891-6.457 3.16-13.789 2.293-20.527-.82-6.402-3.609-12.254-9.82-16.113-11.852-7.355-22.852-4.039-32.082 3.324-9.687 7.73-17.48 19.836-22.41 29.527-5.047 9.93-9.129 20.32-12.527 30.922-2.57 8.02-4.762 16.141-6.871 24.289-4.422 17.02-11.59 45.566-24.031 65.078-6.469 10.141-14.398 17.848-23.969 20.605-9.621 2.773-21.02.652-34.449-9.379-7.109-5.32-13.352-11.727-18.789-18.73-8.523-10.973-15.043-23.391-19.613-36.5-18.48-53.082 3.582-91.281 37.68-123.871 33.48-31.988 78.66-58.504 107.301-88.734 4-4.23 7.383-8.656 10.121-13.187zm-1248.809 596.375a2.11 2.11 0 0 1-1.223-.719c.281.336.672.621 1.223.719zm-725.289-121.531c24.746 31.152 51.828 60.453 83.531 83.336 10.352 7.473 25.113 17.848 40.184 22.816 9.676 3.191 19.477 4.16 28.223.395 2.699-1.164 4.203-2.543 4.691-4.211s-.023-3.496-.937-5.348c-2.242-4.543-6.969-9.105-10.145-12.156-17.164-16.469-39.73-26.883-61.16-36.562-28.773-12.988-58.82-28.219-84.387-48.27zm516.078-42.016a52.95 52.95 0 0 1-15.289 6.688c4.027 3.918 7.469 8.496 10.137 13.074 7.07 12.117 8.832 25.879 10.551 39.563 1.66 13.109 3.262 26.141 10.07 37.395 2.891 4.762 7.332 9.422 12.301 11.652 4.578 2.055 9.621 1.898 14.129-2.559 5.859-5.805 6.949-14.172 5.832-23.004-1.77-14.035-9.172-29.254-13.941-38.461-8.809-17.008-21.168-30.723-33.789-44.348zm128.461-122.223c-.461.027-.953.063-1.383.117-2.297.285-4.809.754-5.379.801-10.629.891-21.18 1.906-31.852 2.266-22.887.773-48.109 3.395-72.687 3.172 3.688 30.055 3.52 55.297 14.168 84.125 5.852 15.832 14.922 32.316 31.801 38.137 11.551 3.98 24.641 2.41 37.84-1.516 20.41-6.07 41.082-17.801 57.082-24.613l21.277-8.859c.543-.23 4.352-1.367 5.93-2.359.262-.547.75-.977 1.383-1.133l-28.512-46.297c-9.461-14.895-19.398-29.473-29.668-43.84zm-154.941 125.645a30.92 30.92 0 0 0-2.809-1.41c-.941-.414-3.941-1.5-6.383-1.617-.5-.027-.969-.012-1.367.09-.043.008-.09.027-.141.047l.059.055c.18.172.422.324.68.473 1.242.695 3.039 1.199 4.922 1.59 1.707.355 3.488.605 5.039.773zm-29.352-145.406c.707 5.875 1.508 11.73 1.711 15.281 1.215 21.063 5.184 41.129 13.512 60.586 6.098 14.266 13.457 28.422 23.348 40.465 5.73 6.973 11.813 13.57 17.883 20.137 3.738-2.895 6.816-6.375 8.629-10.328 3.168-6.902 2.379-13.551.578-20.164-1.937-7.152-5.039-14.27-6.289-21.586-1.719-10.082-.629-20.508-.25-30.828.352-9.633.09-19.172-4.09-28.191-10.102-.793-19.969-2.289-29.379-4.836-11.801-3.187-19.992-10.84-25.652-20.535zm18.52 104.289c-2.059-.191-4.328.586-6.562 1.703-4.031 2.008-7.918 5.199-10.488 7.301-3.004 2.457-5.937 5.016-8.828 7.641 3.262.195 6.559-.285 9.824-1.695 1.164-.504 9-6.555 13.516-11.512.859-.941 1.602-1.844 2.133-2.66.148-.23.289-.523.406-.777zm-11.051-324.969c-7.543 29.422-12.648 61.859-15.051 94.246a2.12 2.12 0 0 1-.145 1.988c-1.254 17.648-1.699 35.262-1.305 52.348a2.11 2.11 0 0 1 .066 2.527c.23 8.168.652 16.211 1.277 24.07.691 8.688 2.031 18.457 4.77 27.699 1.047.176 1.82 1.113 1.762 2.199a34.52 34.52 0 0 0 0 3.121c.563 1.531 1.172 3.035 1.828 4.504 5.105 11.441 13.16 20.934 26.078 24.426 13.691 3.699 28.352 5.148 43.313 5.434a1.58 1.58 0 0 1 .25-.047 2.08 2.08 0 0 1 .867.066c25.09.391 50.953-2.395 74.352-3.187 10.609-.359 21.09-1.367 31.648-2.254.48-.039 2.332-.371 4.281-.645-57.258-79.48-123.961-152.547-173.992-236.496zm-99.215 179.582c-.793.094-1.582.277-2.359.527-2.758.883-5.375 2.563-7.668 4.207-10.793 7.75-18.797 18.086-26.516 28.738-3.762 5.188-7.707 10.359-10.465 16.172-.195.41-.844 2.313-1.187 3.332 2.223.016 4.859-.648 7.578-1.539 5.184-1.703 10.602-4.289 14.246-5.559 9.93-3.457 19.188-7.883 27.977-13.027-1.695-2.305-2.961-5.156-3.445-7.59-1.359-6.82.066-13.687 1.137-20.422.262-1.629.484-3.242.703-4.84zm11.371 31.785l-2.258 1.445c.098-.008.195-.023.293-.043.688-.145 1.328-.613 1.965-1.402zm-7.18-31.32l-.715 5.039c-.988 6.246-2.426 12.605-1.168 18.93.402 2.012 1.488 4.395 2.938 6.227a205.1 205.1 0 0 0 9.035-5.918c.57-3.281.422-6.926-.344-10.402-1.266-5.75-4.227-11.105-8.812-13.461-.309-.16-.621-.297-.934-.414zm75.227-78.32c-12.578 13.648-30.523 24.008-45.176 34.34-8.555 6.035-17.836 12.48-23.582 21.438-3.727 5.813-4.988 11.922-5.895 18.281.77.219 1.535.52 2.297.91 5.605 2.883 9.461 9.281 11.008 16.316.59 2.668.844 5.418.754 8.082 9.344-6.809 18.258-14.336 27.043-22.23 7.684-6.902 15.305-13.934 22.559-21.293.723-.734 7.301-6.086 10.074-8.336-.379-15.52-.059-31.477.918-47.508zm498.918-70.516c-11.809 7.711-22.777 17.457-30.34 28.25-2 2.867-5.277 7.902-6.738 12.824-.82 2.805-1.121 5.566.211 7.691 1.668 2.676 4.418 1.879 7.199.301 5.539-3.152 11.27-9.941 12.789-12.074 7.84-11.004 13.121-23.723 16.879-36.992zM2773.93 359.199c-23.918-21.598-58.648-32.398-90.16-31.898-85.23 1.34-156.93 66.109-185.898 142.98-14.723 39.047-17.973 81.207-32.223 120.5-14.949 41.219-43.988 80.641-50.828 124.359-2.898 18.551-1.629 36.879-1.199 55.199.438 18.68 0 37.34-6.32 56.191-4.711 14.027-13.301 24.82-22.16 35.32-8.562 10.148-17.379 20.02-22.852 32.547a17.84 17.84 0 0 0-1.18 3.773 10.99 10.99 0 0 1 .719.109c5.461.879 12.211 1.949 17.91 4.48 4.082 1.797 7.633 4.359 9.973 8.008 4.961 7.75-2.43 15.289-10.449 14.609-12.59-1.07-22.434-11.77-22.684-23.539-24.777-2.719-51.539 4.32-75.437 9.41-8.352 1.781-16.73 3.719-24.801 6.551-1.531.539-3.441 1.98-5.27 3.168-1.531.992-3.02 1.82-4.242 2.16-.477.133-.937.191-1.367.199l.148.441c24.75 71.352 50.93 142.508 69.789 215.711 4.223-4.289 8.191-8.84 12.09-13.398 4.113-4.797 8.172-9.699 12.16-14.699 2.922-10.539 7.07-20.672 11.773-30.629 9.316-19.75 20.84-38.809 29.137-59.086 7.152-17.5 2.133-29.027-2.629-45.988-1-3.578-2.621-9.73-2.5-15.141.09-4.117 1.219-7.809 3.898-10.07 2.422-2.027 4.75-2.84 6.902-2.828 2.07 0 4.02.75 5.828 2.098 2.332 1.75 4.441 4.57 6.203 7.852 3.988 7.41 6.34 17.172 6.617 20.91 2.063 27.734-10.59 55.973-23.82 79.57-10.77 19.227-23.687 37.809-37.57 55.277-2.727 10.07-4.289 20.531-4.066 31.602.387 19.543 7.508 37.348 14.148 55.289 6.82 18.441 13.148 37.027 11.758 57.645-1.117 16.648-8.43 38.414-10.809 58.965-.43 3.715-.699 7.387-.73 10.984 1.652 6.387 2.691 13.145 3.172 20.129 2.77 7.199 7.578 13.527 15.379 18.465 4.66 2.949 9.941 4.289 15.391 4.773 16.5 1.473 28.371-6.352 37.27-17.707 9.211-11.727 15.281-27.187 19.949-40.523 2.391-6.848 4.441-13.809 6.531-20.754 2.238-7.48 4.41-14.98 6.969-22.363 3.91-11.234 8.289-22.332 13.5-33.039 11.711-24.113 28.02-47.922 51.699-61.762 19.023-11.117 39.703-17.34 58.16-26.289 17.992-8.723 33.863-20.082 43.75-41.594 8.652-18.805 4.813-33.629-2.41-48.379-5-10.207-11.57-20.379-16.969-31.723-1.609-3.383-5.52-6.668-10.539-11.102-21.402-18.895-62.992-56.234-51.629-188.543.098-1.16 1.117-2.031 2.277-1.934a2.12 2.12 0 0 1 1.93 2.293c-11.129 129.75 29.242 166.488 50.223 185.012 5.57 4.922 9.777 8.699 11.559 12.457 5.391 11.324 11.961 21.484 16.949 31.68 7.762 15.855 11.762 31.793 2.461 52.008-10.371 22.531-26.91 34.496-45.75 43.629-18.371 8.906-38.949 15.078-57.871 26.137-22.961 13.418-38.68 36.582-50.039 59.957-5.129 10.559-9.449 21.504-13.301 32.582-2.539 7.324-4.687 14.766-6.918 22.191-2.102 7.004-4.172 14.023-6.59 20.934-4.801 13.746-11.121 29.648-20.613 41.738-9.77 12.465-22.867 20.922-40.977 19.309-6.121-.547-12.043-2.098-17.281-5.414-5.531-3.504-9.711-7.641-12.809-12.258-.023 4.012-.211 8.063-.57 12.137-1.762 20.227-12.543 29.164-26.992 34.09-9.008 3.07-19.508 4.527-30.078 6.273l.949 4.473c1.18 5.414 2.07 10.766 2.469 16.297 1.152 16.02-.059 32.387-1.687 48.328-2.211 21.547-10.711 38.781-20.461 55.418-8.52 14.547-18.02 28.629-24.902 44.871 26.363-17.77 56.273-30.219 87.422-37.059 7.121-8.562 14.73-16.73 22.84-24.133 26.691-24.383 58.68-40.465 95.66-35.543 27.531 3.668 43.828 18.594 48.93 37.125 3.531 12.777 1.711 27.355-5.559 41.266 12.648 6.496 24.629 14.004 36.25 22.199 33.988 23.996 64.84 53.934 100.449 81.621 18.609 14.477 40.699 29.652 64.281 39.063 23.277 9.297 48.027 12.973 72.238 4.551 39.32-13.68 63.719-44.285 79.441-80.488 15.867-36.559 22.887-78.828 27.277-115.453 2.77-23.02 4.453-46.078 4.582-69.266.008-2.074-1.031-10.348-.762-15.797a22.6 22.6 0 0 1 .109-1.441c-16.789 5.621-34.109 9.555-51.758 10.758-83.352 5.691-177.801-40.289-203.469-124.539-15.863-52.047-8.07-101.93 7.887-150.641 15.832-48.312 39.703-95.465 56.18-142.445 19-54.176 21.082-109.168 34.293-164.297 1.438-6.031 3.219-12.039 5.469-17.82 6.18-15.93 15.59-22.199 26.609-26.238 2.832-1.031 5.781-1.922 8.813-2.781-19.184-5.191-28.211-19.34-31.273-36.43-3.418-19.102.801-41.969 6.551-59.68 4.09-12.609 3.762-21.23-1.598-33.41-1.512-3.449-3.301-6.789-5.09-10.109-.301-.551-.711-1.48-1.133-2.43-6.07 13.848-15.641 25.75-28.18 32.258-14.027 7.293-30.66 7.043-45.488 2.441-13.883-4.309-26.973-11.488-38.473-20.332-12.828-9.848-23.77-21.848-34.91-33.406 1.75 10.059.063 22.297-1.477 31.84-1.781 10.977-5.23 22.238-11.453 31.547-12.687 18.973-37.617 27.5-60.387 25.043.258.469.348 1.027.199 1.578.438 1.91 2.117 6.219 2.359 6.809 2.391 5.82 5.051 11.523 7.711 17.211 7.418 15.84 15.758 31.16 25.277 45.852 5.84 9.008 12.32 17.59 19.32 25.738 5.68 6.602 11.73 12.859 18.121 18.781 17.23 15.98 45.852 36.129 73.27 41.031 3.121.559 6.23.918 9.301 1.047 1.301-6.93 6.16-11.828 11.988-16.25 5.613-4.25 12.133-8.039 16.453-13.277 1.879-2.281 4.727-6.18 7.957-8.84 2.551-2.09 5.359-3.402 8.121-3.16 2.52.219 4.141 1.238 5.148 2.66 1.34 1.879 1.563 4.719.852 7.91-1.469 6.637-6.75 15.039-8.379 16.98-10.801 12.777-24.18 18.008-38.449 18.258-4.23 29.172-25.883 65.75-43.031 87.211-7.77 9.73-14.719 16.348-18.73 18.07-2.031.867-3.629.68-4.711-.055-.801-.543-1.449-1.449-1.711-2.863-.258-1.402-.109-3.543.672-6.512 8.488-32.602-3.949-67.641-19.02-96.281-15.359-29.211-33.48-51.898-36-58.969-.402-1.102.18-2.312 1.281-2.711a2.12 2.12 0 0 1 2.699 1.289c2.5 7 20.539 29.461 35.77 58.422 15.531 29.527 28.121 65.699 19.359 99.32-.441 1.68-.66 3.02-.648 4.02 0 .199.027.438.059.617.27-.078.66-.199.961-.348 1.398-.699 3.129-2.031 5.129-3.859 16.309-14.922 48.25-61.711 53.648-97.422-3.129-.148-6.289-.52-9.457-1.09-28.203-5.051-57.691-25.66-75.41-42.098-6.5-6.031-12.66-12.402-18.441-19.121-7.129-8.289-13.719-17.031-19.668-26.199-9.633-14.852-18.062-30.34-25.562-46.363-2.699-5.75-5.379-11.52-7.789-17.387-.25-.621-1.91-4.902-2.488-7.141-.242-.902-.293-1.609-.25-1.949.078-.641.348-1.082.648-1.371-6.492-1.031-12.742-2.98-18.41-5.852-33.949-17.238-57.371-63.918-36.98-99.551 5.379-9.398 13.641-17.227 23.219-22.227 4.34-2.262 8.883-3.961 13.563-5.141l3.16-11.551c3.828-14.609 7.559-29.102 12.848-43.289 15.102-40.5 41.73-87.27 85.953-100.492 28.52-8.52 56.078-1.777 81.906 10.98 25.453 12.57 49.23 30.992 70.582 46.02 7.16 5.039 15.801 12.102 25.102 18.242.699-.402 1.387-.793 2.098-1.16 8.859-4.762 18.102-8.062 27.492-8.293 6.188-.148 13.508.703 18.02 5.48 8.098 8.59-.102 19.453-9.73 20.813-9.371 1.328-19.152-1.59-28.621-6.449-3.168-1.633-6.309-3.473-9.379-5.434l-2.02 1.223c-10.41 6.449-20.18 14.418-28.922 20.75-.937.68-2.27.469-2.949-.48-.691-.941-.469-2.27.469-2.949 8.91-6.453 18.891-14.582 29.512-21.121-8.691-5.891-16.75-12.398-23.5-17.16-21.191-14.91-44.77-33.211-70.02-45.691-24.871-12.277-51.371-18.918-78.832-10.719-42.969 12.852-68.52 58.559-83.199 97.922-5.23 14.047-8.93 28.41-12.711 42.879-.168.621-1.328 5.781-2.398 9.461a66.8 66.8 0 0 1 7.918-.891c6.953-.391 13.934.258 20.742 1.617 22.719 4.551 39.34 17.031 54.5 31.672l5.578 5.539c6.531-2.598 11.18-8.109 15.293-14.277 5.32-7.98 9.719-17.07 15.449-23.363 13.66-14.957 34.668-27.137 55.891-30.777 17.57-3.012 35.289-.211 49.23 11.508.078-.168.18-.32.297-.449.34-.609 1.961-3.488 2.473-4.191 2.43-3.348 5.16-6.488 8.07-9.43 9.348-9.449 20.277-17.559 33.629-20 34.449-6.297 73.258 12.16 93.34 40.102 5.648 7.859 10.059 16.781 13.168 25.93 8.121 23.91 5.66 46.91-1.047 69.32-6.613 22.059-17.352 43.551-25.93 64.789-8.293 20.512-15.941 41.879-13.031 64.332.039.309.008.609-.07.891l.039 2.379.402 6.141c.27 5.359.387 10.719.328 16.078-.168 15.84-.691 31.699-1.469 47.512 19.98 33.707 47.039 55.707 77.141 81.707 26.777 23.133 54.598 46.195 88.918 57.039 18.48 5.84 37.512 10.461 56.66 14.219-7.281-16.488-20.27-29.23-32.391-42.465-12.801-13.98-24.629-28.5-28.418-48.082-5.703-29.41.469-61.187 4.93-90.301 7.258-47.328 16.348-96.879 6.629-144.508-5.77-28.289-18.32-54.742-39.578-74.609-11.703-10.953-25.66-20.359-38.441-30.84-13.059-10.711-24.879-22.531-32.031-38.051-12.348-26.82-10.051-56.23-6.859-85.969 3.109-29.043 7.07-58.391-1.891-85.801-6.289-19.23-17.699-37.941-35.148-48.812-12.012-7.48-28.531-11.367-43.871-9.828-13.801 1.391-26.668 7.191-34.23 18.93 2.102 2.02 4.102 4.129 6.012 6.309 3.309 3.801 11.328 15.051 14.398 25.133 2.301 7.57 1.699 14.457-4.219 17.977-2.93 1.742-6.242 1.422-9.391-.078-4.039-1.93-7.82-5.84-9.801-8.461-8.801-11.648-9.27-26.5-2.738-39.359l.379-.73zM961.652 1626.859c-10.574 6.813-22.16 11.738-34.863 12.73-7.012.551-13.922.027-20.77.043-6.535.016-13.012.523-19.469 3.121-8.777 3.527-15.047 9.715-20.805 16.508-6.035 7.121-11.52 14.902-18.469 21.289-7.125 6.547-15.824 11.559-24.359 16.039-.594.313-3.402 1.426-5.391 2.656l-.02.012c1.055.207 2.16.262 2.738.316 6.574.648 13.352-.102 19.891-.805 11.918-1.277 24.84-3.832 35.871-9.469-.801-3.559.047-7.598 1.891-11.605 3.258-7.086 9.539-14.109 13.16-17.613 1.395-1.352 5.16-4.133 7.938-4.562 1.5-.234 2.801.098 3.762.973.828.75 1.512 2.02 1.543 4.125.105 7.082-5.109 14.484-9.5 19.543-3.824 4.402-8.348 7.992-13.312 10.918 1.363 1.383 3.578 1.484 5.934 1.223 5.27-.594 11.34-3.441 14.195-4.648 19.117-8.09 38.004-16.098 58.012-21.824 5.883-1.684 11.867-3.109 17.898-4.168.625-.109 2.117-.168 3.48-.336a13.01 13.01 0 0 0 1.398-.277l.074-.059.012-.008c1.945-10.086 4.156-19.961 6.621-29.516a2.53 2.53 0 0 1 .137-.375c-3.852.984-7.762 1.52-11.527 1.43-5.937-.148-11.527-1.82-16.07-5.66zm-61.738 32.828c-.074-.004-.168 0-.234.008a4.07 4.07 0 0 0-.859.238c-1.875.707-3.945 2.344-4.816 3.188-3.363 3.258-9.234 9.758-12.262 16.344-1.211 2.629-2.008 5.262-1.82 7.652 4.344-2.641 8.305-5.844 11.684-9.73 3.785-4.359 8.555-10.605 8.465-16.707-.004-.371-.109-.812-.156-.992zm1439.164-111.781c-38.316 9.242-74.477 27.164-104.02 53.207-14.797 13.043-30.777 29.938-33.988 50.23-2.809 17.758 11.551 32.629 29.551 28.094 17.48-4.406 31.32-16.363 42.848-30.734 11.762-14.645 21.133-31.812 29.441-46.359 9.91-17.375 21.988-36.578 36.168-54.437zm-864.859-135.98c2.711 6.203 4.203 13.551 5.063 21.234 1.469 13.066 1.117 27.117 2.258 37.832 5.242 49.531 9.57 100.598 3.082 150.191-1.461 11.176-3.211 22.852-5.852 34.348 3.891-2.152 7.789-4.078 11.641-5.742 38.23-16.543 81.34-15.422 124.719-9.234 42.941 6.121 86.141 17.195 125.051 20.598 146.18 12.773 293.09-19.184 422.43-87.969 32.762-17.422 65.02-37.32 92.652-62.285 12.277-11.094 25.75-24.598 30.387-41 4.5-15.902-3.289-28.156-14.949-38.168-3.211-2.762-7.961-3.152-11.891-4.18-4.867-1.273-8.687-3.309-9.297-8.832-21.293 3.875-42.434 8.352-63.34 14.484-130.184 38.211-248.543 104.551-382.32 133.336-50.332 10.832-115.09 26.426-165.762 9.012-14.281-4.906-26.879-12.937-36.668-23.402l-.41 1.418c-1.242 4.145-3.922 10.23-7.84 13.961-2.973 2.824-6.621 4.359-10.871 3.316-6.34-1.559-11.191-6.809-14.77-13.531-5.012-9.406-7.602-21.648-9.109-29.031-3.531-17.289-2.281-38.211-3.961-58.02-1.633-19.148-6-37.273-20.84-49.687a2.12 2.12 0 0 1-.262-2.98c.75-.898 2.082-1.016 2.98-.266 15.73 13.16 20.602 32.273 22.332 52.574 1.668 19.645.398 40.391 3.898 57.535 1.441 7.086 3.891 18.855 8.699 27.883 2.961 5.57 6.789 10.125 12.039 11.414 2.73.668 5.031-.461 6.941-2.273 3.398-3.227 5.629-8.531 6.711-12.109a65.83 65.83 0 0 0 1.07-4.055c-9.191-11.137-15.383-24.668-17.453-39.902-.34-2.5-2.867-17.793-2.398-27.035.141-2.695.559-4.922 1.25-6.348.762-1.582 1.898-2.414 3.199-2.605 2.73-.41 5.313 1.066 7.461 3.809.691.883 1.34 1.902 1.949 3 16.789-7.156 33.121-7.449 50.941-11.141 29.641-6.137 59.258-11.945 88.449-19.984 15.082-4.152 30.059-8.469 44.801-13.715 4.5-1.602 8.898-3.422 13.27-5.324l-307.172-16.551-8.109-.574zm-508.531 173.727l-.023.02c-9.258 8.848-12.43 22.168-5.262 33.352 5.273 8.23 13.969 10.141 22.855 8.945 1.98-.266 3.973-.684 5.941-1.227l-6.496-11.422-17.016-29.668zm134.664-56.852l-6.531-9.805c-3.109-4.527-7.539-11.848-12.871-17.074-3.219-3.16-6.738-5.586-10.539-5.773-6-.293-11.32 3.27-16.121 8.109-7.84 7.898-14.258 19.262-19.437 25.574-18.941 23.047-44.617 33.805-65.984 52.887l17.535 30.547 6.926 12.156c5.809-2.117 11.23-5.156 15.41-8.305 26.953-20.301 63.422-62.973 91.613-88.316zm-581.859-94.742c-.375-.66-.809-1.301-1.301-1.918-2.27-2.824-5.504-3.766-9.012-3.574-4.492.242-9.461 2.43-12.687 3.949-7.445 3.504-16.844 10.563-21.176 18.941-3.086 5.965-3.703 12.578.301 19.156 7.023 11.543 25.461 21.586 43.07 24.191 11.988 1.773 23.535.07 30.961-6.531a20.36 20.36 0 0 0 .789-.734c-.703 3.047-.785 6.008.004 8.797 1.047 3.711 3.598 7.195 8.414 10.203 6.742 4.211 14.848 6.625 22.41 8.867 13.578 4.027 31.008 8.648 47.004 7.785 7.867-.426 15.391-2.168 21.996-5.879a22.84 22.84 0 0 0 .043 5.164c.695 5.613 3.594 11.379 9.918 17.219 13.57 12.535 32.48 16.656 49.883 20.766 32.574 7.688 65.625 12.754 98.727 17.59 9.309 1.359 18.652 2.852 28.016 3.797 1.867.191 5.188-.055 8.141.035 1.551.047 2.984.133 3.855.609 1.027.559 2.313.18 2.871-.848s.18-2.312-.848-2.871c-1.309-.711-3.426-1.047-5.746-1.121-2.848-.086-6.047.168-7.848-.012-9.301-.941-18.582-2.426-27.828-3.777-32.98-4.816-65.914-9.863-98.367-17.523-16.715-3.941-34.953-7.715-47.984-19.754-5.398-4.988-7.996-9.836-8.59-14.633-.332-2.668-.047-5.305.676-7.914a38.42 38.42 0 0 0 2.527-2.156c5.348-4.98 8.156-11.445 9.648-18.492 3.742-4.855 7.574-9.613 10.449-14.289 2.621-4.262 6.438-12.535 6.684-19.617.191-5.355-1.574-10.043-6.645-12.473-1.543-.738-2.93-.895-4.16-.684-1.809.313-3.348 1.449-4.551 3.141-2.344 3.297-3.387 8.895-3.637 11.602-.73 7.922-.348 17.176-1.391 25.941a62.66 62.66 0 0 1-.715 4.664c-3.582 4.672-7.055 9.426-9.52 14.27-.93 1.832-1.723 3.68-2.332 5.539-6.781 4.902-14.93 7.02-23.5 7.48-15.516.84-32.406-3.707-45.574-7.617-7.203-2.133-14.949-4.387-21.371-8.398-3.707-2.316-5.777-4.91-6.586-7.766-1.258-4.449.441-9.367 3.059-14.387 4.879-9.367 13.023-19 15.465-26.711 1.301-4.102 2.777-10.352 2.02-15.641-.574-3.996-2.371-7.461-6.086-9.461-2.023-1.086-3.789-1.258-5.309-.91-1.539.355-2.871 1.273-3.973 2.594-2.598 3.113-3.863 8.754-4.371 11.848-1.141 6.969-.496 15.387-1.039 23.375-.496 7.355-1.977 14.367-7.437 19.219-6.59 5.859-16.895 7.082-27.531 5.508-10.613-1.566-21.605-5.953-29.789-11.77 1.613.953 3.59.973 5.684.238 3.859-1.355 8.262-5.473 10.055-7.117 4.816-4.43 11.832-13.398 14.75-22.266 1.281-3.895 1.766-7.766 1.078-11.285.516-.523 1.043-1.031 1.574-1.527 6.59-6.164 14.168-10.289 24.402-8.25a2.12 2.12 0 0 0 2.488-1.664 2.12 2.12 0 0 0-1.66-2.488c-11.773-2.344-20.543 2.223-28.121 9.313zm327.098 121.973a16.04 16.04 0 0 1-3.18-3.992c-.57-1.016-1.863-1.379-2.883-.809s-1.379 1.863-.809 2.883c1.848 3.289 4.344 5.57 7.109 7.465l.078.605c.543 3.797 1.77 8.777 4.266 12.453 1.867 2.75 4.422 4.797 7.809 5.406 2.516.449 4.266-.219 5.422-1.293 1.102-1.027 1.707-2.523 1.773-4.199a9.37 9.37 0 0 0-2.219-6.246c-3.227-3.715-7.398-5.859-11.426-8.172l-1.684-.992c-.863-13.789 7.117-28.23 12.418-40.449 1.363-3.145 3.992-7.969 4.555-12.312.461-3.555-.336-6.812-3.422-9.094-10.633-7.867-27.633-10.785-40.066-14.109-27.969-7.477-55.875-14.34-84.191-20.395l-32.879-6.629c-1.211-.211-4.77-.324-7.711-.738-.781-.105-1.512-.238-2.121-.402-.305-.086-.707-.25-.797-.289-.754-.801-2.016-.895-2.879-.184-.902.738-1.035 2.074-.293 2.977.594.73 2.047 1.457 3.992 1.84 3.086.609 7.668.719 9.074.969 10.969 1.922 21.84 4.27 32.727 6.598 28.25 6.039 56.086 12.887 83.984 20.344 11.973 3.199 28.406 5.844 38.645 13.422 2.258 1.668 2.074 4.324 1.371 6.98-.906 3.426-2.816 6.914-3.871 9.34-5.117 11.793-12.367 25.613-12.793 39.023zm5.027 8.449c.453 2.059 1.125 4.254 2.129 6.207 1.301 2.527 3.148 4.68 5.984 5.191.809.145 1.41.125 1.781-.223.324-.305.418-.777.434-1.27.047-1.125-.395-2.398-1.184-3.309-2.586-2.977-5.891-4.77-9.145-6.598zm1650.883-5.094c6.77-12.895 8.531-26.383 5.262-38.242-4.723-17.125-19.973-30.664-45.402-34.055-35.687-4.75-66.5 10.945-92.258 34.473-6.66 6.086-12.992 12.699-18.973 19.625 23.41-4.512 47.449-5.875 71.133-3.965 30.469 2.457 56.559 10.52 80.238 22.164zm-918.078-82.812c-.082.137-.273.469-.363.73-.379 1.074-.559 2.555-.648 4.27-.461 8.977 2.031 23.824 2.359 26.254a74.68 74.68 0 0 0 14.32 34.953c2.391-15.918-.359-32.895-5.441-47.836-.84-2.469-2.719-9.262-5.527-14.082-.832-1.414-1.723-2.648-2.73-3.473-.609-.512-1.262-.863-1.969-.816zm-551.211-23.207c-4.281-10.32-7.27-20.926-10.812-31.254-4.809-14.07-10.66-27.625-22.559-39.109-36.105-34.824-94.414-20.926-122.504 16.609-25.109 33.555-6.387 75.922 20.242 102.168 3.98 3.922 11.5 12.105 19.293 17.316 4.688 3.133 9.414 5.301 13.434 4.141.664-.191 1.145-.469 1.418-.906.301-.48.352-1.086.309-1.758-.09-1.344-.598-2.891-1.324-4.527-3.07-6.934-9.996-15.184-11.488-17.141-8.512-11.152-21.016-24.145-28.746-38.168-8.066-14.633-11.02-30.355.094-46.344 6.777-9.75 19.387-15.477 30.105-19.562 49.445-18.848 102.559 14.551 100.34 66.93 3.898-3.016 7.918-5.867 12.199-8.395zm-16.68 11.977c4.828-51.441-46.641-84.742-94.352-66.559-9.977 3.805-21.832 8.949-28.137 18.023-10.047 14.453-7.156 28.66.137 41.887 7.629 13.836 20.004 26.637 28.402 37.645 1.535 2.012 8.418 10.355 11.781 17.574 1.906-5.18 6.625-8.859 12.531-11.527 4.855-2.191 10.516-3.707 15.742-4.996-4.75-7.84-9.492-15.715-14.633-23.297-7.148-10.547-16.32-22.523-17.508-35.562-.637-7.027 2.176-12.281 6.379-14.59 4.23-2.324 10.105-1.855 15.832 3.25 4.387 3.906 7.305 9.895 9.461 15.238 3.758 9.309 10.254 30.031 18.973 43.176 1.008 1.52 2.035 2.941 3.094 4.219 8.188-4.457 15.363-10.266 22.445-16.223l9.852-8.258zm-1.082 6.387l-6.051 5.109c-7.008 5.902-14.133 11.633-22.164 16.156 2.234 1.988 4.586 3.258 7.098 3.453 2.266.176 4.609-.602 7.066-2.461 2.793-2.113 5.652-5.543 8.641-10.527 2.18-3.637 4.25-7.582 5.41-11.73zm-35.047 20.043c-.957-1.187-1.887-2.469-2.789-3.828-8.879-13.383-15.543-34.453-19.371-43.93-1.926-4.773-4.434-10.176-8.352-13.668-4.004-3.57-8.02-4.324-10.98-2.695-2.98 1.637-4.648 5.504-4.195 10.496 1.121 12.348 10.023 23.582 16.793 33.57 5.43 8.008 10.418 16.34 15.438 24.617 3.09-.758 5.867-1.477 8.02-2.273 1.863-.691 3.676-1.457 5.438-2.289zm-311.824-6.836c2.055-2.715 3.992-5.398 5.625-8.051 2.348-3.82 5.84-11.207 6.063-17.551.125-3.602-.836-6.871-4.246-8.508-.605-.289-1.137-.41-1.617-.328-.754.129-1.312.715-1.816 1.422-1.918 2.699-2.664 7.32-2.871 9.535-.66 7.188-.418 15.461-1.137 23.48zm-508.695-1.352c14.676-12.18 19.859-33.355 17.293-51.66-.398-2.836-2.008-11.59-5.18-17.367-.754-1.371-1.586-2.57-2.543-3.414-1.051-.934-2.262-1.367-3.668-.809-4.02 1.598-6.227 6.066-7.656 11.234-2.391 8.645-2.359 19.355-2.516 24.906-.348 12.426 1.27 24.871 4.27 37.109zm356.461-46.344c-.355-.859-.832-1.68-1.453-2.449-1.367-1.699-3.371-2.113-5.484-2-3.941.211-8.277 2.219-11.113 3.551-5.641 2.656-12.543 7.516-16.961 13.473-4.113 5.543-6.062 12.082-2.098 18.598 2.145 3.527 5.453 6.879 9.512 9.875-1.816-1.617-1.941-4.371-.371-7.594 2.68-5.504 10.168-12.887 11.563-14.344 5.59-5.82 10.719-13.02 16.406-19.109zm522.258 17.949c1.27 2.836 2.668 5.645 4.219 8.41 1.668 2.965 8.051 10.906 13.359 13.313 1.16.527 2.211.859 3.059.332 1.031-.633 1.551-2.148 1.871-4.656 1.102-8.664-1.301-16.262-6.801-19.273-3.578-1.969-8.387-1.824-14.168 1.082-.52.258-1.031.523-1.539.793zm-521.441-12.555c-4.824 5.492-9.32 11.598-14.168 16.645-1.297 1.352-8.324 8.156-10.812 13.266-.336.691-.586 1.34-.672 1.922-.043.273-.121.535.086.684.332.234.73.254 1.152.203.742-.09 1.535-.41 2.34-.828 2.965-1.547 5.957-4.434 7.305-5.676 4.434-4.074 10.91-12.312 13.594-20.469.641-1.941 1.07-3.883 1.176-5.746zm40.672 29.387c4.391-6.859 9.379-13.555 11.172-19.215 1.141-3.609 2.531-9.102 1.859-13.762-.379-2.641-1.441-5.012-3.898-6.332-.906-.488-1.676-.672-2.355-.516-1.113.258-1.871 1.277-2.531 2.453-1.508 2.684-2.23 6.375-2.586 8.547-1.121 6.852-.461 15.125-.992 22.98-.133 1.98-.344 3.938-.668 5.844zM2153.578 778.02l-3.129 12.449c-18.699 78.352-41.008 155.57-55.559 234.906-12.582 68.656-23.41 137.684-30.051 207.176l-5.25 55.152c-.602 4.977-.941 11.309-2.43 16.988-1.07 4.078-2.738 7.828-5.379 10.645-4.27 4.551-10.98 5.871-18.34 5.453-10.121-.574-21.473-4.359-28.203-5.723-38.477-7.812-76.609-16.891-115.879-20.066-49.68-4.02-99.559-3.039-149.32-4.992-90.07-3.535-180.5-9.988-270.437-16.195l-96.301-5.484c-7.723-.285-16.371.156-24.562-.852-4.738-.586-9.316-1.652-13.5-3.562 8.16 20.18 7.051 37.203 5.602 53.027-1.539 16.719-3.539 32.043 5.84 48.457 9.891 17.289 26.59 26.969 45.719 32.66 29.352 8.734 64.402 8.102 90.281 10.223 119.34 9.789 239.039 10.895 358.289 20.02 57.703 4.418 112.043 25.574 169.441 30.629 11.988 1.055 27.539 1.969 41.391-.914 8.949-1.863 17.188-5.305 23.168-11.453 2.82-2.895 3.801-6.309 4.07-9.898.301-3.988-.238-8.195-.43-12.273-.25-5.293-.758-10.742-1.598-16.203-1.711 9.113-3.773 18.156-6.773 26.828-.867 2.504-2.418 6.766-4.727 9.785-1.883 2.453-4.262 4.086-7.023 4.094-2.648.008-5.02-1.695-6.898-4.52-3.441-5.156-5.441-14.234-6.512-17.496-6.27-19.184-14.238-40.457-14.309-60.84-.008-3.137.09-8.645 1.301-13.266.918-3.531 2.551-6.535 4.988-8.055 3.211-2 7-1.473 10.832.746 7.418 4.297 15.129 15.141 17.68 18.906 4.621 6.844 8.16 14.559 10.801 22.652l.57-3.25c12.367-70.176 23.207-140.543 38.809-210.109 19.422-86.594 42.43-172.691 50.461-261.344 3.309-36.621 3.148-74.109 9.508-110.379.121-.703.73-3.512 1.723-7.152-5.133-1.867-10.91-5.027-15.742-8.699-3.309-2.512-6.16-5.289-8.121-8.07zM583.746 1433.617a2.12 2.12 0 0 0-2.672-.332 2.01 2.01 0 0 0-.996 1.934c.02.348.129 1.07.93 1.684.941.727 7.352 3.348 8.059 3.582l17.453 5.695c16.891 5.223 36.059 11.59 53.996 8.711 1.152-.184 1.938-1.27 1.754-2.422a2.11 2.11 0 0 0-2.422-1.754c-17.312 2.773-35.777-3.539-52.078-8.578-5.82-1.801-11.594-3.75-17.371-5.668-.539-.18-5.676-2.422-6.652-2.852zm1490.992-36.906c-2.617-10.742-6.699-21.117-12.68-29.973-2.039-3.016-7.578-10.937-13.488-15.664-1.789-1.437-3.609-2.578-5.371-3.094-1.379-.41-2.711-.41-3.898.328-1.641 1.02-2.52 3.164-3.141 5.539-1.109 4.242-1.16 9.297-1.148 12.18.047 19.953 7.949 40.758 14.098 59.535.871 2.656 2.332 9.391 4.789 14.348.723 1.453 1.531 2.75 2.453 3.664.648.637 1.328 1.09 2.129 1.09 1.488-.004 2.648-1.105 3.66-2.434 2.031-2.648 3.34-6.406 4.098-8.598 4.113-11.867 6.402-24.441 8.5-36.922zM584.277 1435.52c-.109.496-.395.957-.836 1.27.496-.344.75-.781.836-1.27zm1628.184-131.797c-23.68 1.527-46.383 7.652-68.371 22.699-6.488 4.441-15.559 11.422-22.031 19.441-4.117 5.105-7.199 10.617-7.66 16.168-.098 1.168-.039 2.016.371 2.566.352.488.98.551 1.719.543 1.313-.012 2.883-.43 4.59-1.062 8.273-3.059 19.281-11.164 20.992-12.34 23.43-16.145 45.891-33.738 70.391-48.016zm605.02-43.27c-11.559 7.406-23.531 14.383-33.379 23.793-5.262 5.027-11.371 12.352-14.691 20.266-2.102 5.023-3.102 10.289-1.852 15.309.422 1.688 1.07 2.836 1.992 3.484 1.418.992 3.309.758 5.359.109 6.52-2.066 14.23-8.93 16.73-11.648 12.93-14.113 21.398-32.457 25.84-51.312zm-480.102-139.555l-6.668 7.938c-4.52 5.27-9.121 10.535-14.09 15.406l5.168 21.367c7.199 31.211 13.063 63.469 14.402 95.543.258 6.23.559 13.281-.352 20.004-.52 3.813-1.418 7.516-2.898 10.934.777.672 1.547 1.367 2.289 2.082 6.508 6.25 11.461 14.023 15.008 22.824l.082-.637c2.371-20.48 9.668-42.168 10.789-58.762 1.34-19.996-4.891-38.004-11.508-55.891-6.801-18.387-14.012-36.648-14.41-56.676-.16-8.348.648-16.367 2.188-24.133zm-408.34-402.637c-.41.668-.828 1.297-1.258 1.879-11.23 15.309-30.48 23.27-48.609 26.598-55.613 10.191-112.98-4.758-167.051-16.617-38.102-8.359-76.73-13.77-114.742-22.672-24.098-5.648-55.02-16.027-84.359-18.309-19.168-1.492-37.668.48-53.031 9.738-9.789 5.91-16.758 15.68-22.16 26.832-8.34 17.211-12.93 37.711-17.859 53.109-23.891 74.551-42.5 151.238-62.168 226.984-15.531 59.805-31.691 120.043-38.34 181.633-1.34 12.402-3.281 28.309-1.152 42.66 1.371 9.242 4.43 17.836 10.613 24.289a24.47 24.47 0 0 0 2.09 1.953 2.1 2.1 0 0 1 1.27.988c4.918 3.586 10.809 5.188 16.969 5.945 8.07.996 16.602.547 24.199.824 32.191 1.18 64.313 3.273 96.441 5.492l270.309 16.188c49.832 1.957 99.762.98 149.5 5.004 39.441 3.188 77.73 12.293 116.391 20.137 6.582 1.336 17.68 5.086 27.59 5.645 5.992.344 11.539-.418 15.012-4.121 2.758-2.941 4.129-7.152 4.988-11.531.93-4.73 1.219-9.676 1.699-13.707 2.172-18.309 3.492-36.707 5.25-55.059 6.641-69.609 17.492-138.754 30.102-207.531 14.559-79.402 36.879-156.703 55.609-235.125l4.43-17.758-.008-.039a2.14 2.14 0 0 1 .348-1.48l.02-.039c2.242-9.711 4.199-20.512 4.16-30.551-.039-11.18-2.539-21.422-10.391-27.781-10.937-8.859-28.379-8.828-41.629-8.5-29.301.711-58.531 6.289-87.66 9.18-28.719 2.852-57.621 4.711-86.57 5.742zm398.59 574.98c-10.93-8.238-25.707-12.477-44.879-10.906-12.078.988-23.891 4.48-35.141 8.863-6.109 2.383-12.051 5.051-17.848 7.941 13.199.23 26.688 1.5 40.527 3.145 9.371 1.113 22.992 3.699 35.09 2.668 7.609-.652 14.621-2.715 19.332-7.789a22.66 22.66 0 0 0 2.918-3.922zM2002.34 794.059c-.699-.23-8.102-2.578-9.16-2.75-12.109-1.949-24.418-2.98-36.629-4.008-43.711-3.691-87.441-5.141-131.242-2.242-47.648 3.152-99.168 8.93-142.617 30.102-6.68 3.262-16.742 8.961-23.16 16-4.172 4.559-6.801 9.699-6.492 15.07.211 3.629 1.75 7.418 5.223 11.238 7.918 8.711 19.09 14.012 31.387 17.141 18.012 4.57 38.441 4.492 54.113 4.109 65.898-1.578 130.398-18.168 196.238-19.848 6.891-.172 11.488-.18 18.309.129 10.563.48 35.852 3.789 49.801 13.141 4.281 2.859 7.469 6.281 8.551 10.469 1.07 4.18-.031 9.039-3.922 14.75-7.43 10.91-19.508 18.121-33.16 23.031-20.937 7.52-45.598 9.578-63.668 10.648-47.809 2.859-93.359-7.07-138.648-18.84-45.613-11.859-90.941-25.59-137.992-30.25-27.508-2.73-61.109.473-87.281 13.152-26.578 12.879-45.566 35.449-43.316 71.34 2.168 34.602 28.309 58.996 58.539 72.18 57.117 24.91 122.211 28.371 181.848 45.246 14.133 4 42.293 11.891 60.32 25.469 11.422 8.598 18.762 19.492 14.852 33.34-2.191 7.754-7.402 14.305-13.922 19.852-10.09 8.586-23.289 14.746-33.82 18.977-49.508 19.902-104.969 21.383-157.348 27.203-14.18 1.578-36.77 3.59-53.941 11.355-11.949 5.406-21.277 13.59-23.918 26.043-.242 1.141.488 2.266 1.629 2.508s2.27-.492 2.512-1.633c2.348-11.109 10.867-18.238 21.527-23.059 16.75-7.582 38.813-9.469 52.652-11.008 52.77-5.863 108.598-7.437 158.469-27.484 10.898-4.379 24.539-10.793 34.988-19.68 7.172-6.109 12.832-13.387 15.242-21.926 4.418-15.652-3.473-28.152-16.379-37.871-18.461-13.898-47.242-22.062-61.711-26.156-59.461-16.824-124.359-20.219-181.312-45.055-28.797-12.559-53.937-35.602-56.008-68.57-2.121-33.863 15.871-55.113 40.938-67.262 25.492-12.352 58.223-15.41 85.031-12.75 46.82 4.641 91.941 18.328 137.332 30.129 45.719 11.891 91.707 21.859 139.969 18.98 18.41-1.098 43.52-3.238 64.852-10.898 14.539-5.223 27.309-13.012 35.227-24.633 4.781-7.008 5.832-13.047 4.523-18.18-1.32-5.129-5.062-9.43-10.293-12.937-14.57-9.75-40.937-13.34-51.969-13.852-6.922-.32-11.602-.301-18.609-.129-65.84 1.68-130.34 18.27-196.23 19.848-15.34.371-35.34.492-52.969-3.988-11.461-2.91-21.922-7.762-29.301-15.879-2.68-2.949-3.961-5.832-4.121-8.641-.258-4.301 2.051-8.32 5.379-11.969 6.07-6.641 15.59-11.973 21.891-15.043 42.973-20.937 93.93-26.57 141.051-29.687 43.59-2.891 87.109-1.441 130.602 2.238 12.109 1.02 24.309 2.031 36.32 3.969 1 .16 6.027 2.141 8.527 2.652 1.301.27 2.27.09 2.699-.129 1.043-.543 1.453-1.82.922-2.852-.449-.871-1.41-1.301-2.32-1.102zm-84.5 406.746c-.191.094-1.129.547-1.879.762-3.711 1.047-9.5 1.496-10.973 1.84-13.727 3.242-27.227 7.758-40.5 12.512-1.098.395-1.668 1.605-1.277 2.707s1.609 1.672 2.711 1.277c13.117-4.699 26.469-9.172 40.047-12.379 1.48-.348 7.371-.82 11.141-1.887 1.43-.402 2.609-.922 3.332-1.48.559-.434.938-.922 1.148-1.41.48-1.066.012-2.32-1.059-2.797a2.12 2.12 0 0 0-2.691.855zm-54.129-84.77c2.109 1.094 2.98 3.91 3.52 7.051.98 5.664.441 12.523.301 15.855-.891 22.242-9.09 48.652-27.711 62.18a2.11 2.11 0 0 0-.469 2.957 2.12 2.12 0 0 0 2.957.469c19.633-14.262 28.512-41.992 29.453-65.437.137-3.516.668-10.762-.363-16.742-.797-4.625-2.637-8.477-5.75-10.09-1.027-.539-2.309-.133-2.848.906s-.129 2.313.91 2.852zm31.828 55.262a6.9 6.9 0 0 1-.539.711c-.559.605-1.328 1.277-2.219 1.996-4.621 3.695-12.359 8.297-14.27 9.813-.91.73-1.062 2.063-.332 2.973.719.914 2.059 1.066 2.969.34 1.902-1.52 9.652-6.121 14.281-9.824 1.582-1.266 2.82-2.465 3.492-3.422.477-.695.719-1.348.797-1.891.152-1.156-.66-2.223-1.82-2.379-1.109-.152-2.137.594-2.359 1.684zm451.652-69.617c11.07-14.617 21.359-29.93 30.18-45.68 12.84-22.906 25.289-50.266 23.289-77.191-.309-4.098-3.359-16.137-8.43-22.867-1.699-2.25-3.57-3.941-5.77-4.07-1.391-.07-2.84.527-4.402 1.848-1.828 1.52-2.34 4.121-2.398 6.91-.109 4.973 1.43 10.609 2.352 13.902 5.027 17.969 10.047 30.199 2.457 48.738-8.32 20.348-19.867 39.473-29.219 59.289-2.969 6.281-5.711 12.633-8.059 19.121zm13.629-199.281c.52 9.461 8.621 17.891 18.801 18.762 4.648.398 9.391-3.621 6.52-8.109-2.391-3.742-6.41-5.961-10.789-7.473-4.73-1.637-9.891-2.43-14.203-3.117zm319.32-8.727c12.828-.41 24.859-5.211 34.578-16.73 1.461-1.73 6.18-9.242 7.492-15.16.27-1.203.398-2.32.27-3.293-.09-.617-.27-1.18-.699-1.547-.422-.363-1.02-.531-1.801-.602-1.762-.16-3.449.879-5.07 2.211-3.012 2.469-5.629 6.141-7.391 8.258-4.52 5.492-11.289 9.52-17.16 13.961-4.73 3.59-8.898 7.43-10.219 12.902zM1536.941 764.199l-2.043 1.672a731.48 731.48 0 0 0-20.109 17.168l-12.648-9.141c-1.641-1.18-3.602-3.047-5.621-4.527-1.59-1.172-3.238-2.102-4.809-2.48-1.133-.281-2.281.41-2.551 1.551-.281 1.129.41 2.277 1.551 2.559 1.398.34 2.84 1.379 4.25 2.5 1.688 1.34 3.309 2.828 4.699 3.828l11.898 8.594c-8.277 7.406-16.43 14.977-24.469 22.648l-6.781-4.469c-5.25-3.441-13.668-6.832-17.98-11.41-.797-.852-2.137-.891-2.988-.09s-.891 2.137-.09 2.988c4.512 4.789 13.25 8.449 18.738 12.051l5.961 3.93-10.02 9.699a2.12 2.12 0 0 0-.031 2.992 2.12 2.12 0 0 0 2.992.039l10.68-10.34 26.789 17.859a1991.14 1991.14 0 0 0-59.988 57.641 2.1 2.1 0 1 0 2.988 2.988c19.75-19.789 40-39.219 60.629-58.211l2.871 1.91c.969.652 2.289.383 2.93-.59a2.11 2.11 0 0 0-.59-2.937l-2-1.332 22.66-20.461 18.52 14.871-25.41 22.66c-.879.781-.949 2.109-.18 2.992.781.867 2.121.949 2.992.168l25.93-23.109 22.051 18.301c.887.75 2.227.641 2.977-.25.75-.902.641-2.23-.25-2.98l-21.566-17.91 11.656-10.172c1.891-1.629 3.953-3.219 6.082-4.809l23.449 22.719a2.12 2.12 0 0 0 2.992-.027 2.11 2.11 0 0 0-.031-2.992l-22.969-22.27c4.348-3.238 8.688-6.578 12.027-10.328.77-.871.699-2.211-.18-2.992a2.11 2.11 0 0 0-2.98.172c-3.309 3.719-7.629 7.008-11.949 10.207l-17.57-16.637.379-.32c9.922-8.543 20.082-16.781 30.344-24.91 1.438-1.152 3.758-3.609 6.078-5.5 1.199-.992 2.352-1.871 3.359-2.031 1.152-.18 1.93-1.27 1.75-2.418a2.12 2.12 0 0 0-2.418-1.762c-1.57.262-3.5 1.398-5.383 2.93-2.289 1.879-4.59 4.332-6.02 5.461-10.301 8.168-20.5 16.449-30.469 25.02l-.73.621-22.91-21.152 17.691-13.848c1.359-1.043 3.379-2.051 5.16-3.18 1.43-.902 2.73-1.883 3.598-2.93a2.12 2.12 0 0 0-.27-2.98c-.898-.75-2.238-.621-2.98.277-.809.961-2.141 1.793-3.488 2.602-1.66.98-3.371 1.91-4.59 2.852l-18.289 14.328-5.301-4.789c-10.262-9.25-24.461-17.723-33.59-27.762a2.12 2.12 0 0 0-2.992-.141c-.859.781-.918 2.121-.141 2.992 9.223 10.141 23.531 18.711 33.891 28.051l4.813 4.348zm-21.902 24.281c-8.238 7.348-16.328 14.871-24.328 22.48l26.859 17.91 22.918-20.711-20.367-15.852-5.082-3.828zm51.191 2.738l-19.16 16.762 18.52 14.879 12.23-10.668c1.789-1.543 3.738-3.051 5.75-4.551l-17.34-16.422zm1270.668 23.922a2.07 2.07 0 0 1-1.727-.48c.598.512 1.188.602 1.727.48zm-43.098-9.152c2.98-.207 5.949-.637 8.84-1.309 8.559-1.988 16.84-6.07 22.559-12.871.629-.758 1.992-2.43 2.77-4.129.191-.418.34-.828.422-1.23.059-.309.129-.629-.18-.801-.512-.258-1.172-.137-1.949.051-1.23.313-2.633.93-4.133 1.742-7.84 4.219-18.02 13.32-21.418 15.199a71.21 71.21 0 0 1-6.91 3.348zm-1253.699-38.91l-2.512 2.051c-6.551 5.383-12.969 10.883-19.309 16.48l4.418 3.352 21 16.348 19.422-17-23.02-21.23zm642.488 24.871c1.711.41 3.238.582 4.48.422 3.41-.43 6.078-3 7.328-6.109 1.242-3.09 1.082-6.781-1.379-9.551-.57-.641-1.07-1.051-1.609-1.07-.332-.02-.641.129-.949.34-.551.359-1.07.91-1.59 1.578-2.543 3.313-4.711 9.152-6.281 14.391zm-459.629-79.871c.078 5.25-.031 10.582-.473 16 50.742 11.32 104.09 23.992 155.922 14.492 16.781-3.07 34.68-10.211 45.359-24.129-40.031 1.277-80.141 1.008-120-.363-7.348-.25-14.18-.727-20.75-1.297l-.059-.012h-.051c-20.082-1.77-37.719-4.48-59.949-4.691zm794.859 26.582c.258.078.5.102.719.09-.238.012-.48-.02-.719-.09zm69.309-98.09l-3.84-3.781c-14.59-14.09-30.527-26.18-52.391-30.559-6.469-1.289-13.09-1.91-19.68-1.551-3.57.199-7.098.68-10.547 1.461-.352.199-.691.27-1 .281a1.06 1.06 0 0 1-.223 0 57.84 57.84 0 0 0-12.84 4.84c-8.871 4.629-16.531 11.867-21.508 20.578-19.211 33.582 3.227 77.43 35.227 93.672 24.551 12.469 60.941 6.41 76.813-17.312 5.879-8.801 9.098-19.48 10.781-29.871.828-5.129 1.738-11.09 2.066-17.027-.629-.07-1.219.199-1.777.629-.73.57-1.41 1.379-2.051 2.332-2.852 4.16-4.852 10.617-5.93 13.188-7.52 17.801-20.859 34.18-40.852 38.07-17.348 3.371-35.301-3.66-47.707-16.039-12.453-12.402-19.293-30.129-14.551-47.922 1.07-4.02 2.789-7.82 5.168-11.219 10.34-14.781 25.449-17.102 41.332-14.648 15.148 2.34 30.98 9.078 43.551 12.629 6.5 1.84 13.199 3.359 19.957 2.25zM1826 546.949a301.54 301.54 0 0 1 8.98-10.898c5.609-6.5 13.07-12.879 16.191-21.039 1.438-3.762 1.598-8.582.238-12.633-1.27-3.77-3.879-6.891-8.191-7.551-7.41-1.148-15.52 2.051-21.91 5.48-7.84 4.223-14.809 10.281-21.277 16.332-10.609 9.91-23.441 23.168-31.121 37.949-4.988 9.602-7.809 19.832-6.27 30.18 1.91 12.789 9.828 22.531 14.508 34.18 1.773 4.41 2.531 8.789 3.531 13.09.93 3.949 2.07 7.832 4.68 11.582 7.07 10.18 17.469 16.398 27.832 22.77 10.859 6.68 21.668 13.508 29.039 24.598 3.621 5.434 6.43 11.461 8.379 17.684.18.566 1.359 3.828 1.441 5.438.008.301-.012.582-.051.832 21.898.219 43.84.059 65.762-.562 7.84-17.859 8.969-34.051 2.93-52.918-1.871-5.852-4.281-11.512-7.301-16.859-1-1.773-2.102-3.492-3.332-5.121-.027-.051-.109-.141-.219-.262-2.578 3.52-5.109 7.07-7.539 10.703-4.09 6.137-9.223 12.477-11.75 19.508-.391 1.102-1.609 1.672-2.711 1.281-1.102-.402-1.668-1.609-1.27-2.711 2.641-7.34 7.93-14.02 12.211-20.43 5.809-8.699 12.289-16.98 18.5-25.43a2 2 0 0 1 .328-.52 1.19 1.19 0 0 1 .172-.172c4.117-5.629 8.098-11.328 11.68-17.289 2.719-4.531 6.738-10.98 8.77-17.449 1.25-3.949 1.77-7.902.531-11.34-1.062-2.949-3.75-3.031-6.672-2.281-5.828 1.512-12.629 6.449-15.02 8.281-16.512 12.66-30.148 29.719-42.871 46.051-1.879 2.418-5.598 6.168-8.398 9.969-1.621 2.188-2.961 4.359-3.16 6.258-.121 1.16-1.16 2.012-2.332 1.891-1.16-.129-2-1.168-1.879-2.328.262-2.5 1.84-5.449 3.961-8.34 2.82-3.82 6.57-7.609 8.469-10.051 12.941-16.609 26.84-33.93 43.629-46.801 2.633-2.02 10.141-7.371 16.551-9.031 3.02-.777 5.84-.727 8.012.441a1.38 1.38 0 0 1 .199.109c.27-3.527-1.859-6.211-4.789-8.277-5.25-3.723-13.121-5.523-17.801-5.961-6.172-.59-12.469-.07-18.719 1.309-1.402 2.313-3.133 4.48-4.723 6.402-11.598 13.938-25.23 26.719-39.547 37.84-4.422 3.438-9.363 7.289-14.832 8.887-1.211.352-2.961.781-4.488.641-1.48-.141-2.773-.738-3.633-1.98-.937-1.359-1.129-3.027-.789-4.758.379-1.93 1.461-3.93 2.219-5.262 3.641-6.379 8.883-12.027 14.102-17.141 12.578-12.316 30.41-23.707 48.879-28.277a18.23 18.23 0 0 0 .52-1.133c1.121-2.68 1.43-5.539-.289-8.34-5.02-8.16-16.148-9.539-24.937-9.227-14.832.52-29.25 6.648-41.402 15.688-5.668 7.25-10.98 14.813-15.719 22.652-3.941 6.508-6.641 13.668-10.539 20.16-.66 1.078-2.582 3.969-4.531 4.938-1.449.723-2.93.711-4.301-.379-1.059-.84-1.578-2.25-1.43-3.98.191-2.371 1.719-5.559 2.199-6.691 3.172-7.449 7.441-14.57 12.371-20.977 5.27-6.883 11.711-13.293 18.93-18.723zm-45.238 97.34c-.082.371-.141.633-.152.742-.59 4.43-.82 8.891-1.02 13.359-.398 8.719-1.418 18.789-1.129 28.648.27 9.172 1.668 18.16 5.949 25.621 6.191.52 12.621.949 19.5 1.191l43.738 1.039c0-.242.051-.48.141-.699l-1.219-4.25c-1.832-5.84-4.469-11.5-7.859-16.613-7.031-10.559-17.402-16.969-27.742-23.328-10.848-6.68-21.68-13.301-29.09-23.969a26.8 26.8 0 0 1-1.117-1.742zm138.758-18.09l-7.098 9.531c.449.508.879 1.02 1.02 1.211 1.34 1.77 2.539 3.637 3.637 5.578 3.16 5.602 5.684 11.52 7.641 17.652 6.18 19.277 5.27 35.918-2.297 54.066l4.129-.129c4.711-8.859 8.379-24.238 8.551-40.301.188-17.559-3.793-36-15.582-47.609zm-71.16 87.172l.07-.062c-.02.02-.051.043-.07.063zm-90.07-139.582l-.117.051c-1.223 1.07-2.391 2.199-3.523 3.352-3.297 3.359-6.238 6.867-8.91 10.75-8.219 11.938-14.937 25.32-19.609 39.039-5.949 17.531-6.098 33.961-5.168 50.391l1.891 30.48c20.977.188 37.867 2.598 56.547 4.359-3.59-7.5-4.91-16.191-5.168-25.039-.301-9.973.73-20.16 1.129-28.973.199-4.59.449-9.168 1.051-13.73.039-.32.48-2.047.801-3.598.098-.52.199-1.199.25-1.52-.109-.41-.102-.852.059-1.273a2.03 2.03 0 0 1 .281-.52c-.492-1.5-.879-3.02-1.242-4.547-.957-4.102-1.648-8.281-3.34-12.492-4.797-11.949-12.809-22-14.758-35.129-.582-3.891-.609-7.762-.172-11.602zm830.539 70.781l-.398.07c-7.578 1.398-15.121-.18-22.418-2.25-12.422-3.512-28.062-10.199-43.043-12.512-14.258-2.199-27.93-.391-37.207 12.883-2.102 3-3.613 6.348-4.551 9.887-4.34 16.293 2.051 32.48 13.449 43.84 11.43 11.391 27.93 17.98 43.91 14.871 18.57-3.609 30.781-19.02 37.758-35.559 1.363-3.223 4.191-12.07 8.082-16.121 1.73-1.801 3.648-2.781 5.711-2.629.02-4.09-.332-8.082-1.242-11.672-.07-.27-.09-.551-.051-.809zm6.141-2.051c11.563 11.941 22.801 24.492 36.102 34.711 11.102 8.531 23.738 15.48 37.141 19.629 13.789 4.281 29.25 4.629 42.289-2.148 13.48-6.992 23.191-20.723 28.602-36.152 5.438-15.527 6.527-32.828 2.57-46.937-1.762-6.293-4.633-12.191-8.582-17.391-13.711-18.07-33.941-22.609-53.941-19.191-20.309 3.492-40.398 15.141-53.469 29.473-5.609 6.137-9.859 15.047-15.059 22.848-4.262 6.402-9.152 12.031-15.652 15.16zm35.18-4.801l3.43-5.07c5.402-6.898 12.16-12.687 19.48-17.457 3.203-2.09 6.512-4 9.922-5.711 9.418-4.699 22.289-9.602 34.148-10.07 11.27-.449 21.621 3.199 26.672 15.449 5.809 14.082 2.598 31.012-5.711 44.98-8.32 14-21.801 25.082-36.77 27.281-18.602 2.73-34.852-9.402-43.648-24.812-.582-1.008-1.883-1.367-2.891-.789a2.12 2.12 0 0 0-.793 2.891c9.633 16.871 27.582 29.879 47.941 26.898 16.172-2.367 30.809-14.199 39.801-29.309 9-15.129 12.281-33.5 5.988-48.75-5.859-14.18-17.719-18.59-30.758-18.07-12.449.5-25.98 5.582-35.871 10.52-3.559 1.77-7.012 3.77-10.34 5.941-7.711 5.02-14.82 11.141-20.5 18.398-.422.52-3.781 4.723-4.34 6.82-.441 1.66.18 2.781 1.168 3.359a2.13 2.13 0 0 0 2.902-.75c.32-.559.359-1.187.168-1.75zm177.781 3.34c3.461-1.27 7.109-2.047 10.73-2.75l6.43-1.23c4.109-.809 11.199-2.957 15.43-6.75 2.359-2.109 3.77-4.777 2.59-8.129-1.059-2.988-3.469-4.219-6.23-4.48-4.879-.449-10.758 1.84-13.937 4.133-5.641 4.047-9.27 9.617-12.711 15.348l-2.301 3.859zm-1030.309-1.289c.258.641.801.902 1.148 1.031a2.09 2.09 0 0 1-1.148-1.031zm134.141-2.949l-.012.008zm.117-.359l-.008.008a1.42 1.42 0 0 1-.09.293 1.51 1.51 0 0 0 .098-.301zm882.02-30.352a13.96 13.96 0 0 0-2.797.699c-4.59 1.73-7.223 6.801-8.93 11.082l-.012.008c.699-.43 1.41-.957 2.141-1.59 3.559-3.039 6.59-6.598 9.598-10.199zm-902.297-47.82c-16.082 5-31.34 15.16-42.391 25.98-4.941 4.84-9.93 10.16-13.383 16.211-.5.859-1.187 2.09-1.578 3.348-.238.762-.469 1.551-.059 2.152.199.289.59.211.938.199.902-.031 1.84-.301 2.52-.5 4.973-1.461 9.402-5.051 13.43-8.168 14.082-10.941 27.48-23.5 38.883-37.211a80.35 80.35 0 0 0 1.641-2.012zm911.187 43.973l1.742.289c4.758.859 9.559 2.129 13.699 2.238 3.449.102 7.77-.41 10.879-2.148 1.301-.73 2.379-1.68 2.969-2.969.594-1.301.641-2.91.07-4.891-.789-2.723-2.91-3.902-5.387-4.27-4.523-.66-10.152 1.137-13.332 2.918-4.141 2.309-7.52 5.43-10.641 8.832zm-989.629-37.402c-.949 1.109-1.859 2.242-2.738 3.391-4.711 6.129-8.801 12.93-11.82 20.051-.352.82-1.391 2.879-1.781 4.699-.039.191-.059.43-.07.641l.012-.012c.297-.25.59-.551.848-.867.699-.82 1.25-1.73 1.52-2.191 3.91-6.48 6.609-13.648 10.551-20.16 1.129-1.871 2.289-3.719 3.48-5.551zm918.488 18.121c.051.281.043.57-.027.859.09-.371.07-.648.027-.859zm98.75-5.25a3.93 3.93 0 0 0-.187-.59c-1.172-2.742-3.73-4.391-6.59-5.5-3.223-1.242-6.852-1.77-9.793-2.062-2.52-.25-5-.258-7.457-.059 6.719 2.301 12.84 6.141 19.789 7.852.918.23 2.27.5 3.461.469.238 0 .559-.059.777-.109zm-48.578-52.859c2.352 1.438 4.73 2.801 7.141 4.039 8.629 4.43 17.527 7.23 26.078 6.02 6.512-.918 12.723-7.91 7.25-13.711-3.687-3.91-9.777-4.277-14.828-4.16-8.77.223-17.383 3.363-25.641 7.813zm-4.68-162.652c-5.602 11.313-5.191 24.313 2.531 34.52 1.668 2.211 4.828 5.563 8.238 7.191 1.82.871 3.719 1.27 5.41.262 4.27-2.531 3.988-7.652 2.328-13.113-2.879-9.457-10.437-20.008-13.539-23.578-1.59-1.82-3.25-3.578-4.969-5.281" class="C"/></g><path d="M494.984 123.789c.914 5.191 1.602 8.781 2.059 10.762s.688 4.648.688 8.008c0 10.07-2.211 19.453-6.637 28.152s-10.453 14.879-18.082 18.539c-6.102-8.238-13.578-15.34-22.426-21.289s-18.539-10.832-29.066-14.641c-10.527-3.82-21.437-6.641-32.727-8.469s-22.277-2.75-32.957-2.75-20.672.84-29.98 2.52-17.547 3.969-24.715 6.867c-7.172 2.891-12.816 6.48-16.937 10.75s-6.18 9.16-6.18 14.652c.914 6.711 5.035 13.5 12.359 20.371 7.324 6.859 16.324 13.578 27.004 20.137s22.508 13.043 35.473 19.453l38.223 18.309c15.563 7.32 28.988 14.109 40.277 20.371 11.293 6.25 20.598 13.117 27.922 20.598 7.324 7.473 12.816 15.941 16.48 25.402s5.492 20.898 5.492 34.328c0 15.563-2.594 30.129-7.781 43.711s-12.742 25.398-22.66 35.469-21.891 17.93-35.93 23.582c-14.035 5.641-29.75 8.457-47.145 8.457-17.09 0-35.551-2.59-55.387-7.777-19.832-5.18-38.371-12.281-55.613-21.281s-31.582-19.379-43.023-31.129c-11.445-11.742-17.164-24.18-17.164-37.301 0-6.102 1.754-13.879 5.262-23.34s9.84-19.379 18.996-29.762c.914 9.16 5.875 19.992 14.875 32.5s22.504 24.113 40.508 34.793c16.785 9.758 34.102 16.859 51.953 21.277 17.852 4.43 34.559 6.641 50.121 6.641 17.086 0 30.973-2.141 41.652-6.41s19.07-9.379 25.176-15.328 10.375-11.98 12.816-18.082 3.813-10.988 4.117-14.648c-.305-6.102-3.129-11.969-8.469-17.621s-12.508-11.141-21.512-16.48-19.453-10.758-31.355-16.25a1471.77 1471.77 0 0 0-37.074-16.469c-19.223-8.551-35.777-16.559-49.664-24.039-13.883-7.473-25.324-15.102-34.328-22.883s-15.562-15.949-19.68-24.488-6.18-18.309-6.18-29.289c0-17.09 5.188-33.27 15.563-48.52 10.375-15.262 25.324-26.863 44.855-34.793 9.766-4.27 20.215-7.32 31.355-9.148 11.137-1.84 22.047-2.75 32.727-2.75 20.141 0 39.82 2.75 59.047 8.238s38.449 12.512 57.672 21.051m145.555 298.44c-5.797-4.879-9.687-10.992-11.672-18.309s-2.973-13.582-2.973-18.773c0-6.41.762-11.898 2.285-16.477-1.219 0-3.965 2.449-8.238 7.328s-8.926 10.68-13.961 17.391l-14.875 19.68-10.984 14.191c-3.969 4.277-7.707 7.629-11.215 10.066s-6.332 3.82-8.469 4.121c-4.883-.301-9.992-1.289-15.332-2.969a62.19 62.19 0 0 1-15.105-7.1 53.19 53.19 0 0 1-12.359-10.98c-3.511-4.273-5.875-9.16-7.094-14.648 0-8.539.227-15.559.688-21.059.457-5.492 1.449-11.441 2.973-17.852 2.746-11.59 6.789-24.711 12.133-39.359s11.516-29.07 18.535-43.262c7.02-14.18 14.879-27.457 23.574-39.82s17.926-22.039 27.691-29.059c2.746 0 5.949.23 9.613.68 3.66.461 7.398 1.301 11.215 2.52a86.96 86.96 0 0 1 10.984 4.352c3.508 1.68 6.484 3.891 8.926 6.641-2.746 3.047-9.691 13.27-20.828 30.66-11.137 17.398-23.57 42.418-37.305 75.07-1.523 3.359-3.355 8.238-5.492 14.648l-6.406 20.141c-2.137 7.02-3.891 13.879-5.266 20.598-1.371 6.711-2.059 12.051-2.059 16.023 0 2.438.379 4.27 1.145 5.488s1.449 2.129 2.059 2.75c4.578-1.84 10.375-6.871 17.395-15.109s16.781-20.902 29.293-37.992l10.758-14.648c4.117-5.488 8.313-11.371 12.586-17.621a277.7 277.7 0 0 0 12.129-19.449c3.816-6.719 6.941-13.43 9.383-20.141 1.223-3.668 2.824-8.008 4.809-13.051 1.984-5.027 4.426-10.297 7.324-15.789s6.254-11.059 10.07-16.711c3.813-5.637 8.313-10.91 13.5-15.789 3.969 0 8.242.461 12.816 1.371 4.578.918 8.926 2.059 13.047 3.441 4.117 1.367 7.703 2.898 10.754 4.566 3.055 1.684 5.34 3.441 6.867 5.273a515.92 515.92 0 0 1-18.309 39.816c-6.715 13.121-12.969 26.012-18.766 38.684-5.797 12.66-10.68 25.25-14.648 37.758s-5.949 24.719-5.949 36.621c0 6.41.531 11.969 1.602 16.699s2.211 8.699 3.434 11.91c1.219 3.199 2.363 5.871 3.434 8.012 1.066 2.129 1.602 3.957 1.602 5.488 0 .301-.305.762-.918 1.371-.305.309-.609.457-.914.457-2.137 0-4.883-.457-8.238-1.367-3.355-.922-7.094-2.223-11.215-3.891a148 148 0 0 1-12.359-5.73c-4.117-2.129-8.012-4.418-11.672-6.859m364.349-130.45c-4.891.297-10.836 3.43-17.855 9.379s-14.57 13.578-22.656 22.891c-8.09 9.301-16.48 19.598-25.176 30.891l-25.176 33.648-22.656 31.352c-7.02 9.77-12.969 17.547-17.852 23.34-6.711-2.742-12.512-6.793-17.391-12.133-4.887-5.34-8.395-11.969-10.531-19.91 1.527-9.457 3.664-19.297 6.41-29.52s6.332-20.828 10.758-31.809c4.422-10.988 9.914-22.512 16.477-34.559s14.57-24.793 24.031-38.223c-4.578.313-10.836 3.59-18.77 9.84-7.934 6.262-16.477 14.34-25.633 24.262s-18.613 21.059-28.379 33.41c-9.762 12.359-18.918 24.488-27.461 36.391-11.293 15.867-20.676 29.758-28.148 41.66s-12.895 18.918-16.25 21.047c-7.934-5.797-13.43-12.047-16.48-18.77-3.051-6.707-5.34-14.18-6.863-22.418.305-7.332 1.449-16.48 3.434-27.473 1.98-10.977 4.805-22.27 8.465-33.867 7.02-22.27 16.098-44.402 27.234-66.371s21.895-42.109 32.27-60.418c8.547 1.828 16.25 4.727 23.117 8.699s14.113 9.758 21.742 17.391c-3.055 9.457-7.781 19.457-14.191 29.977l-20.141 33.191c-7.016 11.59-13.426 23.492-19.223 35.699s-9.613 24.563-11.441 37.082c8.543-12.211 18.688-26.25 30.438-42.109 11.746-15.871 23.801-30.82 36.16-44.863s24.641-25.937 36.844-35.699c12.207-9.77 23.191-14.648 32.957-14.648 3.664 0 7.629.609 11.902 1.828s8.238 2.75 11.902 4.582 6.711 3.578 9.152 5.258 3.813 2.98 4.117 3.891c-1.523 6.109-5.109 14.422-10.754 24.949l-18.082 33.18c-6.406 11.602-12.355 22.813-17.848 33.652-5.496 10.828-8.699 19.449-9.613 25.859 14.953-20.449 28.988-38.988 42.109-55.621s25.48-30.891 37.074-42.789 22.355-21.059 32.277-27.469c9.91-6.402 19.297-9.609 28.148-9.609 6.102 0 11.82 1.598 17.16 4.809 5.34 3.199 9.078 7.852 11.211 13.961-2.742 9.148-7.242 20.141-13.5 32.949-6.25 12.82-12.59 26.32-19 40.508-6.402 14.191-12.121 28.152-17.16 41.883-5.031 13.73-7.551 26.09-7.551 37.078 0 6.41.91 10.602 2.738 12.59 1.84 1.98 4.434 2.973 7.793 2.973 3.66 0 7.09-.691 10.297-2.062s5.563-2.059 7.094-2.059c1.828 1.219 2.898 2.75 3.199 4.578.309 1.832.457 3.512.457 5.031-6.098 4.891-12.359 8.93-18.77 12.129-6.398 3.211-13.57 4.813-21.508 4.813-7.324 0-13.352-1.223-18.078-3.66s-8.621-5.801-11.672-10.07-5.187-9.16-6.41-14.652-1.828-11.437-1.828-17.848c0-10.379 1.371-20.672 4.117-30.902 2.746-10.219 6.027-19.977 9.84-29.289s7.859-18 12.133-26.09 7.938-15.328 10.988-21.738m350.15-.003c-4.879.297-10.828 3.43-17.848 9.379s-14.57 13.578-22.652 22.891c-8.09 9.301-16.48 19.598-25.18 30.891l-25.168 33.648-22.66 31.352c-7.02 9.77-12.973 17.547-17.852 23.34-6.719-2.742-12.508-6.793-17.398-12.133-4.883-5.34-8.391-11.969-10.52-19.91 1.52-9.457 3.66-19.297 6.398-29.52 2.75-10.219 6.34-20.828 10.762-31.809 4.418-10.988 9.918-22.512 16.477-34.559s14.57-24.793 24.031-38.223c-4.578.313-10.828 3.59-18.77 9.84-7.93 6.262-16.469 14.34-25.629 24.262-9.152 9.918-18.609 21.059-28.383 33.41-9.758 12.359-18.918 24.488-27.457 36.391-11.293 15.867-20.68 29.758-28.152 41.66-7.48 11.898-12.891 18.918-16.25 21.047-7.93-5.797-13.43-12.047-16.48-18.77-3.047-6.707-5.34-14.18-6.867-22.418.309-7.332 1.449-16.48 3.438-27.473 1.98-10.977 4.801-22.27 8.473-33.867 7.008-22.27 16.09-44.402 27.227-66.371s21.902-42.109 32.273-60.418c8.539 1.828 16.25 4.727 23.109 8.699 6.867 3.969 14.117 9.758 21.75 17.391-3.051 9.457-7.781 19.457-14.191 29.977l-20.141 33.191a401.58 401.58 0 0 0-19.23 35.699c-5.789 12.211-9.609 24.563-11.437 37.082 8.539-12.211 18.688-26.25 30.438-42.109 11.75-15.871 23.801-30.82 36.16-44.863s24.641-25.937 36.852-35.699c12.199-9.77 23.191-14.648 32.949-14.648 3.66 0 7.629.609 11.902 1.828s8.238 2.75 11.898 4.582c3.668 1.828 6.719 3.578 9.16 5.258s3.809 2.98 4.121 3.891c-1.531 6.109-5.113 14.422-10.762 24.949l-18.078 33.18c-6.41 11.602-12.363 22.813-17.852 33.652-5.488 10.828-8.699 19.449-9.609 25.859 14.949-20.449 28.988-38.988 42.109-55.621s25.48-30.891 37.07-42.789c11.602-11.898 22.359-21.059 32.27-27.469 9.922-6.402 19.301-9.609 28.148-9.609 6.102 0 11.832 1.598 17.172 4.809 5.34 3.199 9.078 7.852 11.211 13.961-2.75 9.148-7.25 20.141-13.5 32.949-6.262 12.82-12.59 26.32-19 40.508s-12.133 28.152-17.16 41.883c-5.039 13.73-7.551 26.09-7.551 37.078 0 6.41.91 10.602 2.738 12.59 1.832 1.98 4.43 2.973 7.781 2.973 3.66 0 7.102-.691 10.301-2.062 3.211-1.367 5.57-2.059 7.098-2.059 1.832 1.219 2.902 2.75 3.203 4.578.309 1.832.457 3.512.457 5.031-6.098 4.891-12.359 8.93-18.77 12.129-6.41 3.211-13.578 4.813-21.508 4.813-7.32 0-13.352-1.223-18.082-3.66s-8.617-5.801-11.668-10.07-5.191-9.16-6.41-14.652-1.832-11.437-1.832-17.848c0-10.379 1.371-20.672 4.121-30.902 2.738-10.219 6.02-19.977 9.84-29.289 3.809-9.309 7.859-18 12.129-26.09s7.93-15.328 10.98-21.738m249.462-48.983c-1.219 18.918-4.57 35.168-10.07 48.75-5.488 13.578-13.352 25.48-23.57 35.699s-22.66 19.449-37.301 27.691c-14.648 8.238-31.738 16.18-51.27 23.797a74.96 74.96 0 0 1-.23 5.73 82.69 82.69 0 0 0-.23 6.18c0 3.961.313 8.082.922 12.352.609 4.281 1.68 8.238 3.199 11.91 1.531 3.66 3.66 6.629 6.41 8.918s6.262 3.434 10.531 3.434c8.238 0 16.32-1.832 24.258-5.492 7.93-3.66 15.48-8.16 22.652-13.5 7.18-5.34 13.891-11.141 20.141-17.398l16.707-17.16c3.051 2.75 5.652 5.34 7.781 7.777-13.73 18.313-28.758 33.492-45.078 45.551-16.332 12.051-31.812 19.75-46.461 23.109-21.062-2.437-37.461-10.148-49.211-23.109-11.75-12.969-17.621-28.609-17.621-46.918 0-12.512 1.75-25.25 5.262-38.223s8.398-25.477 14.648-37.539a217.08 217.08 0 0 1 21.973-34.098c8.391-10.68 17.398-19.98 27.008-27.922 9.609-7.93 19.531-14.191 29.75-18.762 10.223-4.578 20.371-6.867 30.441-6.867 14.039 1.828 27.16 10.527 39.359 26.09zm-31.578 15.109c-8.242 1.219-16.781 4.57-25.633 10.07-8.848 5.488-17.168 12.809-24.949 21.969-7.781 9.152-14.879 19.832-21.281 32.039-6.41 12.203-11.449 25.32-15.109 39.363 24.41-12.203 44.711-27.23 60.879-45.082 16.172-17.859 24.871-37.309 26.094-58.359m41.647 165.231c1.531-8.852 4.199-20.52 8.008-35.012 3.82-14.5 8.32-29.91 13.512-46.23 5.18-16.328 10.68-32.727 16.469-49.207 5.801-16.48 11.453-31.27 16.941-44.402 3.969-9.461 7.469-16.848 10.531-22.199 3.047-5.328 6.398-9.84 10.07-13.5 4.27.609 8.688 1.68 13.27 3.211 4.578 1.52 9 3.348 13.27 5.488 4.281 2.133 8.09 4.352 11.449 6.641 3.352 2.281 5.949 4.5 7.781 6.629-8.242 9.77-15.492 20.902-21.742 33.422-6.258 12.508-12.59 28.531-19 48.059 16.48-14.648 31.051-28.687 43.711-42.109 12.672-13.43 24.488-28.379 35.48-44.859 1.828-1.531 5.031-2.289 9.609-2.289a37.59 37.59 0 0 1 12.359 2.059c3.961 1.371 6.711 3.281 8.242 5.719-5.5 14.652-8.242 29.141-8.242 43.492 0 13.418 1.98 23.488 5.949 30.211-.309 1.828-2.367 5.34-6.18 10.52a127.75 127.75 0 0 1-12.59 14.648c-8.238-4.27-15.559-10.148-21.969-17.621-6.41-7.48-11.141-15.637-14.191-24.488-14.34 10.07-26.547 19.91-36.617 29.52s-18.691 20.289-25.863 32.039-13.27 25.25-18.309 40.512c-5.031 15.258-9.84 33.418-14.41 54.469-2.75-.301-6.031-1.301-9.848-2.969-3.812-1.68-7.621-3.742-11.441-6.18-3.809-2.449-7.25-5.039-10.301-7.789-3.051-2.742-5.031-5.344-5.949-7.781M363.602 720.469c0 12.98-3.219 24.09-9.66 33.32-6.441 9.242-15.5 16.313-27.184 21.199s-25.562 7.34-41.637 7.34c-8.09 0-15.801-.43-23.141-1.277-7.34-.84-14.156-2.07-20.445-3.672-6.289-1.59-11.98-3.59-17.074-5.988V742.34c8.289 3.391 17.875 6.559 28.758 9.512 10.883 2.938 22.117 4.418 33.699 4.418 10.086 0 18.547-1.379 25.387-4.121 6.84-2.75 12.008-6.617 15.5-11.609s5.242-10.98 5.242-17.969-1.695-12.859-5.094-17.602-8.758-9.109-16.098-13.109c-7.34-3.988-16.949-8.23-28.832-12.73-8.289-2.988-15.828-6.41-22.617-10.258-6.789-3.84-12.656-8.262-17.598-13.25s-8.762-10.859-11.457-17.602-4.043-14.5-4.043-23.289c0-12.082 2.969-22.422 8.91-31 5.941-8.59 14.254-15.16 24.938-19.699s23.066-6.812 37.145-6.812c11.582 0 22.391 1.141 32.426 3.441s19.594 5.441 28.68 9.441l-9.734 25.457c-8.488-3.5-17.023-6.34-25.609-8.539s-17.473-3.289-26.66-3.289c-8.488 0-15.652 1.238-21.492 3.738s-10.285 6.043-13.332 10.641c-3.047 4.59-4.566 10.031-4.566 16.32 0 7.09 1.598 12.98 4.793 17.672 3.195 4.699 8.234 8.938 15.125 12.727 6.891 3.801 15.879 7.844 26.961 12.141 12.48 4.793 23.09 9.883 31.828 15.27s15.398 11.883 19.992 19.473 6.891 17.18 6.891 28.758m174.568 58.857l-24.266-65.148h-85.82l-23.965 65.148h-31.902l83.574-219.867h31.453l83.125 219.867zm-32.801-91.809l-23.066-64.551-3.219-9.891-4.344-13.629-3.52-11.68c-1 4.09-2.148 8.41-3.445 12.961l-3.82 12.73-3.07 9.508-23.363 64.551h67.848" class="C"/><path d="M594.715 779.328V560.359h30.707v192.313h95.105v26.656H594.715m281.058 0H752.809V560.359h122.965v26.359h-92.262v65.152h86.723v26.07h-86.723v74.879h92.262v26.508" class="C"/></svg>
